<?xml version="1.0" encoding="UTF-8" standalone="no"?>
<!-- Created with Inkscape (http://www.inkscape.org/) -->

<svg
   xmlns:dc="http://purl.org/dc/elements/1.1/"
   xmlns:cc="http://creativecommons.org/ns#"
   xmlns:rdf="http://www.w3.org/1999/02/22-rdf-syntax-ns#"
   xmlns:svg="http://www.w3.org/2000/svg"
   xmlns="http://www.w3.org/2000/svg"
   xmlns:sodipodi="http://sodipodi.sourceforge.net/DTD/sodipodi-0.dtd"
   xmlns:inkscape="http://www.inkscape.org/namespaces/inkscape"
   version="1.1"
   width="693.24194"
   height="896.76544"
   id="svg4034"
   xml:space="preserve"
   style="display:inline"
   inkscape:version="0.47 r22583"
   sodipodi:docname="statistischer Bezirk Darmstadt Alt-Bessungen.svg"><metadata
     id="metadata392"><rdf:RDF><cc:Work
         rdf:about=""><dc:format>image/svg+xml</dc:format><dc:type
           rdf:resource="http://purl.org/dc/dcmitype/StillImage" /><dc:title></dc:title></cc:Work></rdf:RDF></metadata><sodipodi:namedview
     pagecolor="#ffffff"
     bordercolor="#666666"
     borderopacity="1"
     objecttolerance="10"
     gridtolerance="10"
     guidetolerance="10"
     inkscape:pageopacity="0"
     inkscape:pageshadow="2"
     inkscape:window-width="1280"
     inkscape:window-height="999"
     id="namedview390"
     showgrid="false"
     inkscape:snap-bbox="true"
     inkscape:object-nodes="true"
     inkscape:snap-smooth-nodes="false"
     inkscape:zoom="1.2685914"
     inkscape:cx="394.03761"
     inkscape:cy="533.45043"
     inkscape:window-x="1280"
     inkscape:window-y="0"
     inkscape:window-maximized="1"
     inkscape:current-layer="g4814" /><defs
     id="defs4038"><inkscape:perspective
       sodipodi:type="inkscape:persp3d"
       inkscape:vp_x="0 : 526.18109 : 1"
       inkscape:vp_y="0 : 1000 : 0"
       inkscape:vp_z="744.09448 : 526.18109 : 1"
       inkscape:persp3d-origin="372.04724 : 350.78739 : 1"
       id="perspective394" /><clipPath
       id="clipPath4052"><path
         d="m 257.621,817.445 5444.429,0 0,7007.865 -5444.429,0 0,-7007.865 z"
         id="path4054" /></clipPath><clipPath
       id="clipPath4064"><path
         d="m 2921.43,4787.87 84.83,595.7 126.4,4.07 105.69,-11.64 82.96,11.39 58.18,-188.93 116.35,17.76 79.23,-62.01 20.16,-154.6 -1.21,-61.25 -102.64,-190.79 -34.3,-63.41 -70.85,-49.51 -76.07,48.5 -139.3,44.24 -124.63,39.73"
         id="path4066" /></clipPath><clipPath
       id="clipPath4070"><path
         d="m 2921.43,4634.65 673.81,0 0,752.99 -673.81,0 0,-752.99 z"
         id="path4072" /></clipPath><clipPath
       id="clipPath4082"><path
         d="m 119.992,8248.34 0,-8066.242 5709.598,0 0,8066.242 -5709.598,0 z"
         id="path4084" /></clipPath><clipPath
       id="clipPath4092"><path
         d="m 4079.3,5248.32 -41.93,-39.54 -36.49,-46.97 -120.77,38.16 -104.78,28.49 -121.6,16.17 -78.66,-90.42 -79.23,62.01 -116.35,-17.76 -58.18,188.93 63.73,8.74 14.54,46.21 145.62,138.02 112.47,-78.42 20.69,31.4 62.27,-50.69 46.86,-18.69 1.71,-27.51 65.41,-13.38 16.95,22.75 34.92,-4.13 63.44,-61.13 34.21,-94.06"
         id="path4094" /></clipPath><clipPath
       id="clipPath4098"><path
         d="m 3321.31,5154.21 757.99,0 0,426.16 -757.99,0 0,-426.16 z"
         id="path4100" /></clipPath><clipPath
       id="clipPath4110"><path
         d="m 119.992,8248.34 0,-8066.242 5709.598,0 0,8066.242 -5709.598,0 z"
         id="path4112" /></clipPath><clipPath
       id="clipPath4134"><path
         d="m 3448.9,3394.8 92.54,-38.33 2.49,-119.63 59.45,-206.37 100.94,-75.64 117.95,-31.4 -276.16,-234.8 -39.96,41.61 -18.94,88.84 -42.84,12.01 -40.49,58.82 -80.84,57.68 -106.97,-42.85 -126.95,23.47 -57.32,-25.46 -56.66,20.85 -82.78,12.38 -151,34.39 -220.26,-10.03 144.76,501.08 109.89,-8.99 149.61,-6.63 111.36,-0.81 27.98,12.67 39.57,-75.51 100.86,-28.74 51.08,-3.77"
         id="path4136" /></clipPath><clipPath
       id="clipPath4140"><path
         d="m 2521.1,2688.63 1301.17,0 0,772.79 -1301.17,0 0,-772.79 z"
         id="path4142" /></clipPath><clipPath
       id="clipPath4152"><path
         d="m 119.992,8248.34 0,-8066.242 5709.598,0 0,8066.242 -5709.598,0 z"
         id="path4154" /></clipPath><clipPath
       id="clipPath4162"><path
         d="m 3187.06,4305.2 -0.79,-4.31 33.36,-0.9 -7.96,-168.29 82.1,-122.74 -154.11,-85.04 -70.86,-57.35 -63.82,59.64 35.21,87.09 -5.64,61.21 1.83,37.89 20.28,45.78 16.94,71.32 -78.62,63.26 94.94,17.88"
         id="path4164" /></clipPath><clipPath
       id="clipPath4168"><path
         d="m 2994.98,3866.57 298.8,0 0,444.07 -298.8,0 0,-444.07 z"
         id="path4170" /></clipPath><clipPath
       id="clipPath4180"><path
         d="m 119.992,8248.34 0,-8066.242 5709.598,0 0,8066.242 -5709.598,0 z"
         id="path4182" /></clipPath><clipPath
       id="clipPath4190"><path
         d="m 1658.6,2968.08 -249.66,-242.05 -7.8,43.52 -34.91,-7.82 -1.82,17.06 -35.46,-2.8 -9.5,-10.67 -130.93,-25.49 3.1,-45.04 -172.64,-14.38 -3.73,-21.7 -44.07,-4.1 -7.875,-18.7 -174.278,-33.53 -45.531,-29.62 -52.957,-10.76 -44,-37.2 -52.047,-6.72 -104,-51.54 31.871,-41.42 -69.195,9.11 -25.34,38.06 -2.324,111.76 -93.117,434.64 223.746,-1.22 -157.328,221.57 -27.852,81.56 28.426,5.4 -2.492,18.91 124.894,21.98 83.477,-55.46 -18.813,119.88 337.852,61.18 20.664,14.86 27.531,11.01 -17.289,42.41 10.863,7.52 -8.996,26.6 88.13,20.4 -3.98,32 62.03,7.42 -25.39,58.36 227.42,42.16 1.04,12.3 96.98,8.72 19.87,83.49 89.77,93.63 116.9,18.54 1.84,72.11 683.72,130.27 31.89,6.07 -8.86,-156.54 24.91,-127.02 72.77,-209.23"
         id="path4192" /></clipPath><clipPath
       id="clipPath4196"><path
         d="m 332.391,2425.12 2103.739,0 0,1755.24 -2103.739,0 0,-1755.24 z"
         id="path4198" /></clipPath><clipPath
       id="clipPath4208"><path
         d="m 119.992,8248.34 0,-8066.242 5709.598,0 0,8066.242 -5709.598,0 z"
         id="path4210" /></clipPath><clipPath
       id="clipPath4218"><path
         d="m 1631.68,4044.02 -1.84,-72.11 -116.9,-18.54 -89.77,-93.63 -30.82,21.37 -6.73,93.01 39.84,6.83 37.18,156.11 68.31,607.76 59.66,-0.89 46.32,72.61 125.37,63.52 178.56,43.6 -4.96,29.06 67.77,18.92 -74.53,58.24 23.79,7.47 -14.86,11.98 159.38,95.37 25.6,49.2 17.21,94.05 43.07,-56.12 103.52,-182.73 -89.67,-204.95 37.74,-260.54 16.94,-170.6 16.59,-156.74 78.84,-75.91"
         id="path4220" /></clipPath><clipPath
       id="clipPath4224"><path
         d="m 1385.62,3859.74 961.67,0 0,1428.21 -961.67,0 0,-1428.21 z"
         id="path4226" /></clipPath><clipPath
       id="clipPath4236"><path
         d="m 119.992,8248.34 0,-8066.242 5709.598,0 0,8066.242 -5709.598,0 z"
         id="path4238" /></clipPath><clipPath
       id="clipPath4246"><path
         d="m 4005.87,6069.71 63.48,17.39 3.81,29.06 81.32,117.72 139.63,129.14 50.1,23.7 66.36,-15.01 33.32,12.58 54.49,-15.93 33.19,20.05 36.63,-16.55 38.21,11.71 83.16,-9.08 14.91,-40.98 34.78,34.1 129.04,-21.22 91.46,24.5 28.22,-55.44 43.4,23.6 40.47,-39.26 100.24,11.79 143.56,-9.03 -74.86,-40.09 -69.77,10.31 -26.56,-20.25 -41.21,2.51 -70.82,-37 -31.02,-51.73 -116.56,-61.94 -79.65,-105.41 -116.74,-126.19 -84.32,-70.74 -45.01,-132.61 -45.79,-93.74 -65.48,-29.7 -124.62,-56.32 -9.47,-56.06 -79.81,-37.79 -93.83,-33.26 -29.1,-62.72 -31.73,-51.5 -75.17,38.18 -34.21,94.06 -63.44,61.13 -34.92,4.13 -16.95,-22.75 -65.41,13.38 -1.71,27.51 -46.86,18.69 -62.27,50.69 -20.69,-31.4 -112.47,78.42"
         id="path4248" /></clipPath><clipPath
       id="clipPath4252"><path
         d="m 3545.2,5248.32 1770.45,0 0,1140.09 -1770.45,0 0,-1140.09 z"
         id="path4254" /></clipPath><clipPath
       id="clipPath4264"><path
         d="m 119.992,8248.34 0,-8066.242 5709.598,0 0,8066.242 -5709.598,0 z"
         id="path4266" /></clipPath><clipPath
       id="clipPath4278"><path
         d="m 2436.11,3687.57 -72.77,209.23 -24.91,127.02 8.86,156.54 119.8,26.57 176.54,32.97 47.75,-312.52 21.78,-70.22 7.54,-105.88 -3.83,-76.57"
         id="path4280" /></clipPath><clipPath
       id="clipPath4284"><path
         d="m 2338.43,3674.71 382.27,0 0,565.2 -382.27,0 0,-565.2 z"
         id="path4286" /></clipPath><clipPath
       id="clipPath4296"><path
         d="m 119.992,8248.34 0,-8066.242 5709.598,0 0,8066.242 -5709.598,0 z"
         id="path4298" /></clipPath><clipPath
       id="clipPath4306"><path
         d="m 5284.38,6304.7 -112.29,6.88 -100.24,-11.79 -40.47,39.26 -43.4,-23.6 -28.22,55.44 -91.46,-24.5 -129.04,21.22 -34.78,-34.1 -14.91,40.98 -83.16,9.08 -38.21,-11.71 -36.63,16.55 -33.19,-20.05 -54.49,15.93 -33.32,-12.58 -66.36,15.01 -50.1,-23.7 -361.73,27.8 -157.7,71.76 -216.97,46.19 -128.57,-36.66 -125.14,-13.41 -104.19,-37.28 -108.11,-9.88 -70.56,51.85 -57.98,-41.38 -41.65,44.54 -25.45,62.03 -103.35,53.05 75.67,876.02 66.99,-6.91 -1.44,-22.71 68.94,3.03 35.95,-20.29 7.17,-5.28 342.18,93.05 69.53,145.53 13.41,-7.96 45.33,101.72 143.58,-26.21 2.96,-21.92 140.91,-24.2 12.2,-19 8.92,13.49 34.63,-7.92 17.13,-25.77 12.39,-33.3 40.89,-7.85 36.88,12.71 52.51,-13.23 17.15,7.38 15.46,-16.2 16.77,3.76 34.11,-2.48 12.45,33.05 47,15.19 40.57,9.34 65.02,-11.63 13.96,32.91 41.93,16.82 33.7,-22.24 47,17.35 54.92,-33.54 26.73,34.42 27.96,-11.69 43.4,12.45 40.01,29.59 126.3,-3.65 57.98,45.75 15.66,-1.35 74.43,31.62 47.7,-51.69 20.1,30.42 44.73,15.04 17.32,40.39 32.38,3.81 25.53,-17.34 37.46,-3.97 37.03,-16.35 45.25,3.31 24.98,-33.19 8.87,-26.68 52.56,-46.32 0.07,-111.63 -14.4,-1.7 28.42,-64.92 13,-115.35 -20.52,-73.68 -75.44,-9.29 27.8,-64.77 7.62,-80.11 -34.76,-128.56 -23.76,-99.9 75.73,-40.53 105.45,-75.79 96.31,-112.34 17.7,-32.11 9.53,-88 -29.59,-12.15 3.69,-82.44 18.89,-16.27 -9.44,-66.87 -16.17,-83.48 -61.21,-10.47 -105.46,6.46"
         id="path4308" /></clipPath><clipPath
       id="clipPath4312"><path
         d="m 2792.71,6298.55 2685.91,0 0,1510.91 -2685.91,0 0,-1510.91 z"
         id="path4314" /></clipPath><clipPath
       id="clipPath4324"><path
         d="m 119.992,8248.34 0,-8066.242 5709.598,0 0,8066.242 -5709.598,0 z"
         id="path4326" /></clipPath><clipPath
       id="clipPath4336"><path
         d="m 2792.71,6581.63 -0.49,-102.44 -253.86,35.5 -24.65,-36.69 -298.58,44.33 19.89,59.24 -91.26,36.68 10.46,54.89 -5.3,148.93 3.12,74.44 125.67,-1.92 13.51,71.16 44.37,36.39 22.15,28.94 8.35,38.02 -16.94,107.44 -108.66,-19.11 -0.26,152.61 48.78,11.28 1.02,83.88 67.14,-32.11 43.48,15.71 7.89,32.04 206.3,-55.72 19.18,34.36 122.44,13.05 111.92,45.12"
         id="path4338" /></clipPath><clipPath
       id="clipPath4342"><path
         d="m 2143.76,6478 724.63,0 0,979.65 -724.63,0 0,-979.65 z"
         id="path4344" /></clipPath><clipPath
       id="clipPath4354"><path
         d="m 119.992,8248.34 0,-8066.242 5709.598,0 0,8066.242 -5709.598,0 z"
         id="path4356" /></clipPath><clipPath
       id="clipPath4372"><path
         d="m 3081.7,5877.79 12.53,87.22 -18,-0.04 -36.35,51.18 -16.81,46.95 -15.34,4.24 9.49,398.93 74.48,-54.73 108.11,9.88 104.19,37.28 125.14,13.41 128.57,36.66 32.61,-440.54 -61.12,-25.3 -51.6,-116.77 48.69,-82.48 -7.81,-53.29 -36.79,16 -34.26,-18.57 -95.52,96.77 -55.86,25.93 -61.79,-0.31 -81.24,-32.32"
         id="path4374" /></clipPath><clipPath
       id="clipPath4378"><path
         d="m 3007.73,5787.82 582.59,0 0,720.97 -582.59,0 0,-720.97 z"
         id="path4380" /></clipPath><clipPath
       id="clipPath4390"><path
         d="m 119.992,8248.34 0,-8066.242 5709.598,0 0,8066.242 -5709.598,0 z"
         id="path4392" /></clipPath><clipPath
       id="clipPath4402"><path
         d="m 3186.27,4300.89 13.37,72.44 -24.48,51.29 30.21,10.5 64.34,62.48 74.98,42.39 83.64,18.84 110.15,-194.17 -90.8,1.93 -75.74,-51.92 -93.24,-18.65 -59.07,3.97"
         id="path4404" /></clipPath><clipPath
       id="clipPath4408"><path
         d="m 3175.16,4296.02 363.32,0 0,262.81 -363.32,0 0,-262.81 z"
         id="path4410" /></clipPath><clipPath
       id="clipPath4420"><path
         d="m 119.992,8248.34 0,-8066.242 5709.598,0 0,8066.242 -5709.598,0 z"
         id="path4422" /></clipPath><clipPath
       id="clipPath4430"><path
         d="m 3293.77,4008.96 -82.1,122.74 7.96,168.29 59.07,-3.97 93.24,18.65 75.74,51.92 90.08,-1.91 84.11,-127.58 51.96,-40.79 -49.3,-42.08 -112.62,53.61 -21.03,-28.95 -14.12,-96.91 -58.82,-6.97 0.97,-25.75"
         id="path4432" /></clipPath><clipPath
       id="clipPath4436"><path
         d="m 3211.68,4008.96 462.15,0 0,357.63 -462.15,0 0,-357.63 z"
         id="path4438" /></clipPath><clipPath
       id="clipPath4448"><path
         d="m 119.992,8248.34 0,-8066.242 5709.598,0 0,8066.242 -5709.598,0 z"
         id="path4450" /></clipPath><clipPath
       id="clipPath4460"><path
         d="m 3064.7,3457.66 -27.98,-12.67 -111.36,0.81 -149.61,6.63 -109.89,8.99 33.33,106.75 11.3,45.38 10.21,137.73 61.28,4.25 11.47,55 104.07,-5.97 67.12,-21.58 45.18,23.19 -1.69,-269.47 21.2,-16.82"
         id="path4462" /></clipPath><clipPath
       id="clipPath4466"><path
         d="m 2665.86,3444.99 398.84,0 0,365.54 -398.84,0 0,-365.54 z"
         id="path4468" /></clipPath><clipPath
       id="clipPath4478"><path
         d="m 119.992,8248.34 0,-8066.242 5709.598,0 0,8066.242 -5709.598,0 z"
         id="path4480" /></clipPath><clipPath
       id="clipPath4492"><path
         d="m 2821.93,933.504 -19.04,4.473 -7.29,42.441 -18.39,15.566 -13.8,70.146 -60.75,68.99 -143.74,52.82 4.13,12.76 -32.55,14.1 25.34,34.97 -340.71,78.17 65.27,131.6 -140.76,156.72 -9.3,10.36 4.53,2.39 46.15,23.19 124.39,-27.77 133.57,9.6 86.08,40.26 58.07,-31.78 85.8,-15.97 6.75,8.17 20.1,-7.49 -22.06,-58.73 66.96,1.94 11.25,-338.23"
         id="path4494" /></clipPath><clipPath
       id="clipPath4498"><path
         d="m 2130.34,933.504 691.59,0 0,740.786 -691.59,0 0,-740.786 z"
         id="path4500" /></clipPath><clipPath
       id="clipPath4510"><path
         d="m 119.992,8248.34 0,-8066.242 5709.598,0 0,8066.242 -5709.598,0 z"
         id="path4512" /></clipPath><clipPath
       id="clipPath4520"><path
         d="m 2436.11,3687.57 280.76,-12.86 -6.38,-61.16 -11.3,-45.38 -136.92,-455.89 -22.89,258.33"
         id="path4522" /></clipPath><clipPath
       id="clipPath4526"><path
         d="m 2436.11,3112.28 280.77,0 0,575.29 -280.77,0 0,-575.29 z"
         id="path4528" /></clipPath><clipPath
       id="clipPath4538"><path
         d="m 119.992,8248.34 0,-8066.242 5709.598,0 0,8066.242 -5709.598,0 z"
         id="path4540" /></clipPath><clipPath
       id="clipPath4550"><path
         d="m 3170.86,4727.39 139.3,-44.24 76.07,-48.5 42.1,-75.82 -83.64,-18.84 -74.98,-42.39 -64.34,-62.48 -30.21,-10.5 -56.45,73.63 73.33,21.35"
         id="path4552" /></clipPath><clipPath
       id="clipPath4556"><path
         d="m 3118.71,4424.62 309.62,0 0,302.77 -309.62,0 0,-302.77 z"
         id="path4558" /></clipPath><clipPath
       id="clipPath4568"><path
         d="m 119.992,8248.34 0,-8066.242 5709.598,0 0,8066.242 -5709.598,0 z"
         id="path4570" /></clipPath><clipPath
       id="clipPath4578"><path
         d="m 3118.71,4498.25 -46.01,5.14 -51.27,81.04 -74.65,28.08 -49.98,2.35 23.75,166.84 -0.05,-0.38 0.93,6.55 124.8,-20.75 124.63,-39.73 21.18,-207.79"
         id="path4580" /></clipPath><clipPath
       id="clipPath4584"><path
         d="m 2896.8,4498.25 295.25,0 0,289.62 -295.25,0 0,-289.62 z"
         id="path4586" /></clipPath><clipPath
       id="clipPath4596"><path
         d="m 119.992,8248.34 0,-8066.242 5709.598,0 0,8066.242 -5709.598,0 z"
         id="path4598" /></clipPath><clipPath
       id="clipPath4606"><path
         d="m 2919.07,4771.29 -22.27,-156.43 -11.2,-174.79 -201.06,-50.28 -6.34,45.34 35.12,176.48 34.12,75.4 74.79,58.29"
         id="path4608" /></clipPath><clipPath
       id="clipPath4612"><path
         d="m 2678.19,4389.79 240.88,0 0,381.5 -240.88,0 0,-381.5 z"
         id="path4614" /></clipPath><clipPath
       id="clipPath4624"><path
         d="m 119.992,8248.34 0,-8066.242 5709.598,0 0,8066.242 -5709.598,0 z"
         id="path4626" /></clipPath><clipPath
       id="clipPath4634"><path
         d="m 2631.37,4376.49 11.61,-52.49 -23.63,-17.05 24.28,-67.05 -176.54,-32.97 -119.8,-26.57 -78.84,75.91 -16.59,156.74 -16.94,170.6 -37.74,260.54 46.33,-15.08 32.18,-206.11 54.49,-43.58 61.89,1.3 2.26,-80.43 29.29,-95.3 29.7,-5.46 0.81,-15.83"
         id="path4636" /></clipPath><clipPath
       id="clipPath4640"><path
         d="m 2197.18,4180.36 446.45,0 0,663.79 -446.45,0 0,-663.79 z"
         id="path4642" /></clipPath><clipPath
       id="clipPath4652"><path
         d="m 119.992,8248.34 0,-8066.242 5709.598,0 0,8066.242 -5709.598,0 z"
         id="path4654" /></clipPath><clipPath
       id="clipPath4662"><path
         d="m 2197.18,4844.15 89.67,204.95 -103.52,182.73 134.61,50.37 40.28,11.71 29.06,4.96 46.73,75.88 121.19,-70.18 120.15,17.57 19.43,173.65 326.38,-39.79 -14.9,-72.43 -87.19,-612.28 -96.84,-25.99 -74.79,-58.29 -34.12,-75.4 -35.12,-176.48 6.34,-45.34 -53.17,-13.3 -177.24,7.17 -0.81,15.83 -29.7,5.46 -29.29,95.3 -2.26,80.43 -61.89,-1.3 -54.49,43.58 -32.18,206.11"
         id="path4664" /></clipPath><clipPath
       id="clipPath4668"><path
         d="m 2183.33,4376.49 837.83,0 0,1119.3 -837.83,0 0,-1119.3 z"
         id="path4670" /></clipPath><clipPath
       id="clipPath4680"><path
         d="m 119.992,8248.34 0,-8066.242 5709.598,0 0,8066.242 -5709.598,0 z"
         id="path4682" /></clipPath><clipPath
       id="clipPath4690"><path
         d="m 3004.98,3926.21 -24.28,-50.35 29.12,-69.69 -45.18,-23.19 -64.24,19.83 -106.95,7.72 -11.47,-55 -61.28,-4.25 -7.54,105.88 -21.78,70.22 -13.44,88.03 -16.59,108.58 29.6,8.46 7.82,-47.52 177.8,39.23 180.09,34.02 -20.28,-45.78 -1.83,-37.89 5.64,-61.21"
         id="path4692" /></clipPath><clipPath
       id="clipPath4696"><path
         d="m 2661.35,3751.28 395.32,0 0,406.9 -395.32,0 0,-406.9 z"
         id="path4698" /></clipPath><clipPath
       id="clipPath4708"><path
         d="m 119.992,8248.34 0,-8066.242 5709.598,0 0,8066.242 -5709.598,0 z"
         id="path4710" /></clipPath><clipPath
       id="clipPath4718"><path
         d="m 2870.86,4122.72 -172.09,-37.79 -7.82,47.52 -29.6,-8.46 -17.72,115.91 -24.28,67.05 23.63,17.05 -11.61,52.49 187.62,42.85 58.72,-245.82 -17.45,-5.05"
         id="path4720" /></clipPath><clipPath
       id="clipPath4724"><path
         d="m 2619.35,4084.93 258.36,0 0,334.41 -258.36,0 0,-334.41 z"
         id="path4726" /></clipPath><clipPath
       id="clipPath4736"><path
         d="m 119.992,8248.34 0,-8066.242 5709.598,0 0,8066.242 -5709.598,0 z"
         id="path4738" /></clipPath><clipPath
       id="clipPath4746"><path
         d="m 3056.66,4158.18 -186.75,-35.46 -9.65,45.75 17.45,5.05 -58.72,245.82 66.61,20.73 0.35,5.45 0.56,27.15 43.53,-27.9 29.67,-85.77 19.9,2.81 15.37,-69.05 78.62,-63.26"
         id="path4748" /></clipPath><clipPath
       id="clipPath4752"><path
         d="m 2818.99,4122.72 254.61,0 0,349.96 -254.61,0 0,-349.96 z"
         id="path4754" /></clipPath><clipPath
       id="clipPath4764"><path
         d="m 119.992,8248.34 0,-8066.242 5709.598,0 0,8066.242 -5709.598,0 z"
         id="path4766" /></clipPath><clipPath
       id="clipPath4774"><path
         d="m 2994.98,4292.76 -15.37,69.05 -19.9,-2.81 -29.67,85.77 -42.4,27.18 9.16,142.91 49.98,-2.35 74.65,-28.08 51.27,-81.04 46.01,-5.14 56.45,-73.63 24.48,-51.29 -12.58,-68.13 -97.14,5.44"
         id="path4776" /></clipPath><clipPath
       id="clipPath4780"><path
         d="m 2887.64,4292.76 312,0 0,322.12 -312,0 0,-322.12 z"
         id="path4782" /></clipPath><clipPath
       id="clipPath4792"><path
         d="m 119.992,8248.34 0,-8066.242 5709.598,0 0,8066.242 -5709.598,0 z"
         id="path4794" /></clipPath><clipPath
       id="clipPath4982"><path
         d="m 619.219,6986.78 939.241,0 0,139.61 -939.241,0 0,-139.61 z"
         id="path4984" /></clipPath><clipPath
       id="clipPath4994"><path
         d="m 119.992,8248.34 0,-8066.242 5709.598,0 0,8066.242 -5709.598,0 z"
         id="path4996" /></clipPath><clipPath
       id="clipPath5004"><path
         d="m 619.219,6767.67 939.241,0 0,139.61 -939.241,0 0,-139.61 z"
         id="path5006" /></clipPath><clipPath
       id="clipPath5016"><path
         d="m 119.992,8248.34 0,-8066.242 5709.598,0 0,8066.242 -5709.598,0 z"
         id="path5018" /></clipPath><clipPath
       id="clipPath5026"><path
         d="m 619.219,6548.56 939.241,0 0,139.61 -939.241,0 0,-139.61 z"
         id="path5028" /></clipPath><clipPath
       id="clipPath5038"><path
         d="m 119.992,8248.34 0,-8066.242 5709.598,0 0,8066.242 -5709.598,0 z"
         id="path5040" /></clipPath><clipPath
       id="clipPath5148"><path
         d="m 608.793,449.098 937.517,0 0,77.867 -937.517,0 0,-77.867 z"
         id="path5150" /></clipPath><clipPath
       id="clipPath5162"><path
         d="m 5252.5,449.098 88.29,0 0,77.867 -88.29,0 0,-77.867 z"
         id="path5164" /></clipPath><font
       horiz-adv-x="1024"
       id="font4010"
       horiz-origin-x="0"
       horiz-origin-y="0"
       vert-origin-x="0"
       vert-origin-y="0"
       vert-adv-y="0" /></defs><g
     id="g4927"
     style="fill:#e0e0e0;fill-opacity:1;stroke:#646464;stroke-opacity:1;display:inline"
     transform="matrix(1.25,0,0,-1.25,-24.263468,977.18125)"
     inkscape:label="Darmstadt Hintergrund"
     inkscape:groupmode="layer"><path
       sodipodi:nodetypes="cccccccccccccccccccccccccccccccccccccccccccccccccccccccccccccccccccccccccccccccccccccccccccccccccccccccccccccccccccccccccccccccccccccccccccccccccccccccccccccccccccccccccccccccccccccccccccccccccccccccccccccccccccccccccccccccccccccccccccccccccccccccccccccccccccccccccccccccccccccccccccccccccccccccccccccccccccccccccccccccccccccccccccccccccccccccccc"
       id="path4929"
       transform="matrix(0.8,0,0,-0.8,0,841.88952)"
       d="m 629.28125,76.1875 -4.0625,0.46875 -2.15625,5.0625 -5.59375,1.875 -2.5,3.78125 L 609,80.9375 599.6875,84.875 597.71875,84.71875 590.5,90.4375 l -15.8125,-0.46875 -5,3.71875 -5.40625,1.53125 -3.5,-1.4375 -3.34375,4.28125 -6.875,-4.1875 -5.875,2.15625 -4.21875,-2.75 -5.21875,2.09375 -1.75,4.09375 -8.125,-1.4375 -5.0625,1.15625 -5.875,1.90625 -1.5625,4.125 -4.28125,-0.3125 -2.09375,0.46875 -1.9375,-2 -2.125,0.90625 -6.5625,-1.65625 -4.625,1.59375 -5.09375,-0.96875 -1.5625,-4.1875 -2.125,-3.21875 L 478.125,94.875 477,96.5625 l -1.5,-2.375 -17.625,-3.03125 -0.375,-2.75 -17.9375,-3.28125 -5.6875,12.71875 -1.65625,-1 -8.6875,18.1875 -42.78125,11.65625 -0.90625,-0.65625 -4.5,-2.5625 -8.59375,0.375 0.15625,-2.8125 -8.34375,-0.875 -14,5.625 -15.3125,1.65625 -2.40625,4.28125 -25.78125,-6.96875 -0.96875,4 -5.4375,1.96875 -8.40625,-4 -0.125,10.46875 -6.09375,1.40625 0.0312,19.09375 13.59375,-2.40625 2.09375,13.4375 -1.03125,4.75 -2.78125,3.625 -5.53125,4.5625 -1.6875,8.875 L 269,190.3125 l -0.375,9.28125 0.65625,18.625 -1.3125,6.875 11.40625,4.5625 -2.46875,7.40625 -6.0625,31.28125 1.59375,7.96875 -21.6875,4.21875 0.15625,14.375 0.0312,4.15625 13.21875,-3.5 -0.46875,-3.09375 5.15625,-1.59375 0.375,3.34375 2.46875,-1.15625 0.875,8.65625 3.03125,4.09375 16.125,5.59375 -3.7187,11.28125 -5.84375,10.28125 0.6875,2.3125 -3.375,8 -0.375,11.625 6.375,3.8125 4.28125,0.125 5.125,3.9375 2.5,7.53125 7.5625,4.8125 -1.0625,5.15625 0.375,0.25 -5.84375,9.46875 -3.625,0.625 -5.03125,1.46875 -16.84375,6.28125 -5.375,-7 -2.15625,11.75 -3.1875,6.15625 -19.9375,11.90625 1.875,1.5 -2.96875,0.9375 9.3125,7.28125 -8.46875,2.375 0.59375,3.625 -22.3125,5.4375 -15.65625,7.9375 -5.8125,9.09375 -7.4375,-0.125 -8.53125,75.96875 -4.65625,19.53125 -5,0.84375 0.84375,11.625 3.875,2.6875 -2.5,10.4375 -12.125,1.0625 -0.125,1.5625 -28.4375,5.25 3.1875,7.3125 -7.75,0.90625 0.5,4 L 119.625,603 l 1.125,3.3125 -1.34375,0.96875 2.15625,5.28125 -3.4375,1.375 -2.59375,1.875 -42.21875,7.625 2.34375,15 -10.4375,-6.9375 -15.59375,2.75 0.3125,2.375 -3.5625,0.65625 3.46875,10.1875 19.6875,27.71875 -27.96875,-0.15625 11.625,54.3125 0.28125,13.96875 3.1875,4.78125 8.625,1.125 -3.96875,-5.1875 13,-6.4375 6.5,-0.84375 5.5,-4.625 6.625,-1.34375 5.6875,-3.71875 21.78125,-4.1875 1,-2.34375 5.5,-0.5 0.46875,-2.71875 21.5625,-1.8125 -0.375,-5.625 16.375,-3.1875 1.1875,-1.3125 4.4375,-0.375 0.21875,2.15625 4.375,-1 0.96875,5.4375 0,0 16.90625,-2.09375 8.375,5.46875 19.0625,7.5625 3.875,11.75 2.96875,4.03125 3.15625,13.625 26.53125,78.875 -4.25,3.15625 3.6875,7.75 0.375,12.34375 9.46875,-5.03125 1.1875,1.3125 17.59375,19.5625 -8.15625,16.46875 42.5625,9.78125 -3.15625,4.34375 4.0625,1.78125 -0.5,1.59375 17.96875,6.59375 7.59375,8.625 1.71875,8.78125 2.28125,1.9375 0.9375,5.3125 2.375,0.5625 5.34375,1.25 2,-4.96875 6.78125,0.6875 1.53125,-2.625 4.375,2.28125 2.875,-5.125 3.125,1.53125 0.9375,-2.8125 2.34375,1.21875 4.8125,-10.9375 -2.21875,-0.875 5.34375,-10.90625 -0.96875,-1.125 4.4375,-6.28125 7.375,-3.03125 5.8125,-7.1875 18.875,-12.8125 3.875,3.46875 2.6875,3.40625 13.96875,4.53125 5.125,-2.96875 2.5,-10.4375 -1.15625,-4.75 L 449.125,865 l -7.59375,-7 -1.8125,-5.65625 -6.40625,-2.78125 -6.3125,-9.25 -1.40625,-5.5625 2.25,-1.125 6.40625,3.09375 4.25,-0.0937 3.34375,-7.3125 8.28125,-10.25 5.78125,-7.9375 9.625,-1.75 -4.1875,-5.28125 2.71875,-10.0625 -8.84375,3.3125 -6.1875,-0.0625 -7.21875,-4.125 -5.75,-5.4375 0,-10.90625 4.90625,-3.4375 4.0625,-4.21875 -1.21875,-6.21875 -4.34375,-1.1875 0.15625,-6.0625 -2.71875,-6.5625 5.4375,-3.65625 0.4375,-3.84375 -1.84375,0.5 -1.53125,-9.6875 -2.28125,-6.78125 6.125,-9.375 10.71875,-10.0625 23.6875,-19.1875 0.0312,0 0.0937,-0.0937 23.15625,-19.21875 5.5,2.625 9.53125,-11.0625 L 528.75,650.125 555.625,632.9375 557,623.25 560.53125,615.84375 572,605 l 5.78125,-3.96875 -0.1875,-4.625 2.875,-4.65625 7.40625,-4.625 5.4375,-6.8125 32.8125,-10.75 3.75,1.09375 4.6875,-2.4375 7.65625,-4.6875 -0.0937,-0.78125 0.0625,0 -0.78125,-5.9375 2.1875,-0.46875 1.1875,-16.8125 -3.40625,-2.25 -7.875,-2.65625 -2.375,-2.75 1.71875,-6.46875 4.1875,-3.59375 0.65625,-13.78125 -5.875,-7.59375 -5.0625,-6.5625 4.46875,-10.0625 -1.84375,-4.09375 -0.0937,-2.9375 -2.375,-4.3125 -0.78125,-6.5 1.59375,-6.15625 5.8125,-4.46875 3.46875,-3.75 1.875,-3.15625 10.1875,-12.46875 4.0625,-2.625 11.28125,-3.90625 5.3125,-5.75 4.71875,-1.4375 -0.4375,-5.6875 3.9375,-6.15625 0.59375,-17.03125 16.6875,-18.5625 6.75,-3.15625 6.21875,-4.90625 2.1875,-11.25 -0.4375,-9.21875 -1.875,-10.53125 -5.96875,-6.375 -0.28125,-5.8125 1.3125,-2.03125 -0.90625,-4.78125 2.5,-3.8125 -0.8125,-3.46875 -4.03125,-5.5625 -3.25,-0.78125 -2.3125,-4.0625 -2.46875,-2.21875 -0.40625,-3.3125 -4.5625,-3.03125 -2.15625,-3.8125 -5.46875,-2 -4.53125,-5.25 -0.375,-5.46875 -1.59375,-1.03125 -5.28125,-5.25 2.875,-1.21875 2.75,-1.4375 7.65625,-1.28125 2.03125,-10.4375 1.15625,-8.375 -2.34375,-2.03125 -0.46875,-10.3125 3.6875,-1.5 -1.1875,-11 -2.1875,-4.03125 -12.0625,-14.03125 -13.1875,-9.46875 -9.4375,-5.0625 2.96875,-12.5 4.34375,-16.0625 -0.96875,-10.03125 -3.46875,-8.09375 9.4375,-1.15625 2.5625,-9.21875 -1.625,-14.40625 -3.5625,-8.125 1.8125,-0.21875 -0.0312,-13.9375 -6.5625,-5.78125 -1.09375,-3.34375 -3.125,-4.15625 -5.65625,0.40625 -4.625,-2.03125 -4.6875,-0.5 -3.1875,-2.15625 -1.5e-4,0 z"
       style="fill:#e0e0e0;fill-opacity:1;stroke:none" /></g><g
     id="layer2"
     inkscape:label="bebaut, Darmstadt"
     inkscape:groupmode="layer"
     style="fill:#c0c0c0;fill-opacity:1;stroke:none;display:inline"
     transform="translate(-24.263468,-75.18065)"><path
       d="m 454.65572,193.0074 16.80146,-3.86918 3.08777,7.59864 -0.0704,6.5248 -8.74942,0.054 -8.77114,-2.75692 -2.29827,-7.55134 z"
       id="path7210"
       style="fill:#c0c0c0;fill-opacity:1;stroke:none" /><path
       d="m 400.16899,180.52357 16.59324,3.94943 -15.50459,23.04113 -23.24623,-0.36556 -16.03435,29.25898 -12.76838,-6.63207 0.57664,-11.23042 -10.27483,-1.24048 -1.92253,-10.24705 -4.99637,-0.16548 -5.47245,-2.91471 -1.17703,-11.93449 -5.2631,-0.11505 0.0188,-18.90593 -1.00492,-0.34302 80.4761,7.84472 z"
       id="path3057"
       style="fill:#c0c0c0;fill-opacity:1;stroke:none;display:inline" /><path
       d="m 301.70914,274.29487 2.08788,-8.11124 11.25611,-4.49977 5.97553,-0.0993 14.10922,5.93366 13.03857,0.31805 0.45229,-3.01596 4.20601,0.0598 1.03376,13.21033 7.4117,-13.13767 8.42585,-7.77584 7.07827,-0.57588 2.26045,5.70682 4.36564,20.19463 5.98033,5.40937 8.9903,-15.02391 16.63554,4.84938 -4.74916,9.50723 -0.22372,4.55716 12.79097,6.51655 25.71044,-4.69646 -7.26803,3.51677 -6.7551,14.46117 -0.20935,4.89433 -23.8741,-10.43986 -5.94484,4.60709 12.43367,10.07769 -12.09427,13.06742 0.0104,12.26409 7.06348,9.05104 1.6795,-6.45037 11.48382,-0.39144 3.28682,7.10618 7.07936,20.39969 -10.15722,-3.3444 -1.95138,5.3347 -18.28445,2.63975 -13.95799,-1.63049 -15.22476,0.30119 -4.26397,29.4527 -33.45902,-4.90586 -4.38118,-10.62389 2.88216,-27.63976 40.31149,4.53337 -20.78881,-52.42047 0.70787,-16.27208 5.84927,-1.51506 -0.91513,-11.53138 -30.79064,-2.61652 -29.30358,-11.25255 z"
       id="path3853"
       style="fill:#c0c0c0;fill-opacity:1;stroke:none" /><path
       d="m 446.44781,311.28655 37.43507,29.11616 0.69324,8.3189 11.09187,9.70539 -12.00811,13.31217 4.7594,0.28365 7.81351,7.61353 4.51089,11.90143 9.09456,4.64183 -5.2696,5.19931 -4.35337,5.50473 -27.79996,-8.24862 -14.87563,-2.07972 -2.77297,-9.70539 4.15946,-3.46621 -6.93242,-9.01215 -5.54594,5.54594 -13.1716,-3.46621 -0.69324,-11.09187 10.69191,-10.63375 10.88101,7.84865 10.31621,-13.85271 -9.70539,-6.23918 -15.25132,-13.86484 1.01079,-7.01484 -2.77297,-4.61756 8.6946,-5.69864 z"
       id="path3052"
       style="fill:#c0c0c0;fill-opacity:1;stroke:none;display:inline" /><path
       d="m 264.12518,415.27284 8.3189,31.88913 11.09187,-3.46621 10.39863,-22.18374 29.80941,-15.25133 18.71753,5.54594 17.33105,-2.07973 9.01214,4.15945 2.54997,-3.61892 7.84866,5.69865 13.86484,-1.38648 -0.69324,20.79725 5.54593,9.01215 16.63781,4.15945 9.70539,-10.39863 -1.38649,-6.23918 5.54594,0 2.07973,6.93242 10.39863,-2.07972 20.79725,-5.54594 20.79726,26.3432 -21.4905,15.94456 -14.55808,-2.07973 0.69324,20.10402 -6.93242,3.46621 -3.70133,1.16613 8.09591,14.32295 6.00405,-5.09045 14.55808,0 5.54594,-6.93242 10.39863,23.57023 -10.39863,3.46621 -5.54594,6.93242 -11.78511,2.07972 4.15945,13.86484 8.31891,0.69324 20.10401,32.58237 -18.71753,7.62567 -30.50265,1.38648 -0.69324,17.33105 9.01215,-0.69324 -2.77297,13.17159 -11.70269,7.6378 -23.47926,5.66831 -6.37618,-0.74533 -12.52688,-3.3838 -1.37435,6.76759 -13.17159,2.77296 -1.38649,18.71754 -10.39863,9.01214 -4.15945,36.74183 16.63781,-1.38649 8.3189,2.07973 -1.38648,3.46621 -15.94457,9.01214 -9.01214,0 5.54593,22.87699 -10.39863,4.15945 3.46621,51.99314 13.1716,-4.85269 4.15945,6.93242 4.97632,6.76032 -20.92088,7.10452 15.25132,25.64995 18.71753,44.36748 -16.6378,-5.54593 -31.88913,-30.50265 -4.2346,-0.32238 -0.669,4.08674 -2.64692,6.80637 8.39515,-0.46782 0.91271,27.20854 -9.383,20.92088 -2.52573,3.98735 -11.63483,-4.23459 0.41691,-1.48587 -4.28064,-1.7331 3.46621,-4.30974 -18.71754,-4.70241 4.8527,-31.88913 22.87698,0 -0.69324,-29.8094 6.23918,-5.54594 -5.54594,-4.15945 -25.64995,15.25132 -0.69324,-11.09187 -14.18722,1.84911 -3.14383,-18.48691 4.85269,-20.79726 13.1716,10.39863 15.25132,-21.4905 8.84005,-0.19876 7.40023,2.30515 -0.98896,-40.2347 -9.01214,-6.23918 4.85269,-13.17159 7.62566,0 -2.77296,-9.01215 3.46621,-3.46621 -2.07973,-29.8094 -15.25132,-14.26481 -2.77297,-30.79592 -7.62566,-22.87698 -4.15945,8.3189 7.62566,25.64995 -18.71753,7.62566 1.38648,11.09188 -22.18374,4.15945 -9.70539,-3.46621 -10.09322,12.40806 -0.30541,-16.56751 7.62566,-2.77297 -8.40132,-15.33375 31.27831,-29.03374 -40.20804,-31.88913 16.63781,-29.11616 -4.31216,-12.16081 23.02969,-4.55942 -6.23917,-10.3162 -11.09188,0 -20.79725,-15.25133 -9.01215,-33.96885 6.23918,-35.35534 4.08916,-0.76353 -0.62295,-4.08916 6.23918,-3.46621 15.94456,-13.86484 z"
       id="path3848"
       style="fill:#c0c0c0;fill-opacity:1;stroke:none;display:inline" /></g><g
     inkscape:groupmode="layer"
     id="layer4"
     inkscape:label="bebaut, nicht Darmstadt"
     style="fill:#f3f3f3;fill-opacity:1;stroke:none;display:inline"
     transform="translate(-24.263468,-75.18065)"><path
       d="m 31.195887,268.99879 17.331049,4.15945 20.797258,-10.39863 30.502646,8.3189 9.70539,14.55808 -1.38649,23.57023 88.73497,27.03644 2.77297,36.04858 -60.31205,-11.78512 -20.10402,2.77297 -23.570222,-13.86484 4.159452,-42.981 -49.220178,-9.70538 -4.852694,-10.39863 -11.091871,0 -3.46621,-17.33105 z"
       id="path3878"
       style="fill:#f3f3f3;fill-opacity:1;stroke:none" /><path
       d="m 214.21176,347.33513 31.88913,10.39863 7.62566,44.36748 -4.24187,14.87563 -7.69167,4.05883 2.38692,1.46284 -3.16686,1.39861 9.6351,7.073 -8.63644,2.09186 0.85808,3.86616 -3.70134,0.52841 -18.24729,4.69998 -15.74582,7.93108 -10.37437,1.23378 19.41077,-103.98629 z"
       id="path3880"
       style="fill:#f3f3f3;fill-opacity:1;stroke:none" /><path
       d="m 229.46308,793.78294 19.41078,26.34319 -2.07973,13.1716 -16.63781,3.46621 -15.94456,-8.3189 1.38648,-15.94457 1.38649,-11.78511 12.47835,-6.93242 z"
       id="path3892"
       style="fill:#f3f3f3;fill-opacity:1;stroke:none" /><path
       d="m 24.263468,522.72534 28.42292,-11.09187 2.079725,29.8094 -9.012145,7.62566 4.852694,6.93242 7.625661,-1.38648 -4.159451,-9.70539 18.02429,0 2.772968,7.62566 13.171597,-5.54593 10.398629,9.70538 20.797254,0.69325 0,-15.94457 9.01215,-4.15945 15.94456,10.39863 -2.77296,13.86484 11.78511,1.38648 -2.77297,10.39863 -5.54593,1.38648 -0.69325,11.78512 -9.81554,2.55266 3.57637,6.45948 -8.31891,0.69324 0.95725,3.52129 -11.18496,2.95436 -0.33615,4.54977 2.07973,5.86503 -5.53456,2.83941 -42.827146,7.30658 -0.693242,-9.70539 -47.833694,0 0,-90.81469 z"
       id="path3890"
       style="fill:#f3f3f3;fill-opacity:1;stroke:none" /><path
       d="m 245.40765,901.23544 -2.07973,22.18374 -15.25132,14.55808 -14.55808,-1.38648 7.62566,-27.72968 13.1716,-4.15945 11.09187,-3.46621 z"
       id="path3894"
       style="fill:#f3f3f3;fill-opacity:1;stroke:none" /><path
       d="m 456.84644,915.79352 18.02429,15.94456 -20.79726,29.80941 -15.94456,-13.86484 18.71753,-31.88913 z"
       id="path3896"
       style="fill:#f3f3f3;fill-opacity:1;stroke:none" /><path
       d="m 359.79257,944.21644 20.79726,5.54594 6.93242,20.10401 -15.25133,2.07973 -20.79726,-11.78512 8.31891,-15.94456 z"
       id="path3898"
       style="fill:#f3f3f3;fill-opacity:1;stroke:none" /><path
       d="m 686.30952,571.25227 14.55808,3.46621 7.62567,-1.38648 2.77296,25.64995 -4.85269,8.31891 -6.93242,-0.69325 -5.54594,-6.93242 -4.15945,0.69325 -6.93242,-9.01215 -0.69324,-15.94456 4.15945,-4.15946 z"
       id="path3874"
       style="fill:#f3f3f3;fill-opacity:1;stroke:none" /><path
       d="m 492.20178,772.29244 9.01214,-42.981 9.70539,-12.47836 24.95671,24.26347 0.69324,10.39863 -13.86484,2.07973 -8.3189,0 -4.85269,-8.31891 -4.15945,13.1716 1.38648,18.02429 7.62566,2.77297 -17.33105,18.71753 27.72968,11.78511 12.47836,-18.02429 2.77296,-15.25132 11.78512,-6.93242 -2.07973,-40.20803 -10.39863,-10.39863 10.39863,-19.41078 -0.69324,-18.71753 -13.1716,-11.09187 -36.04858,17.33105 -11.78511,56.84584 -10.39863,23.57022 14.55808,4.8527 z"
       id="path3876"
       style="fill:#f3f3f3;fill-opacity:1;stroke:none" /><path
       d="m 662.04605,162.23953 15.25133,-6.93242 6.23918,-14.55808 22.18374,4.85269 11.78511,31.19589 -24.26347,25.64995 -31.19589,-40.20803 z"
       id="path3872"
       style="fill:#f3f3f3;fill-opacity:1;stroke:none" /></g><g
     inkscape:groupmode="layer"
     inkscape:label="Darmstadt komplett"
     transform="matrix(1.25,0,0,-1.25,-24.263468,977.18125)"
     style="fill:#e0e0e0;fill-opacity:1;stroke:#646464;stroke-width:2;stroke-miterlimit:4;stroke-opacity:1;stroke-dasharray:none;display:inline"
     id="g4622"><path
       style="fill:#e0e0e0;fill-opacity:0;stroke:#646464;stroke-width:2.5;stroke-linecap:butt;stroke-linejoin:miter;stroke-miterlimit:4;stroke-opacity:1;stroke-dasharray:none"
       d="m 629.28125,76.1875 -4.0625,0.46875 -2.15625,5.0625 -5.59375,1.875 -2.5,3.78125 L 609,80.9375 599.6875,84.875 597.71875,84.71875 590.5,90.4375 l -15.8125,-0.46875 -5,3.71875 -5.40625,1.53125 -3.5,-1.4375 -3.34375,4.28125 -6.875,-4.1875 -5.875,2.15625 -4.21875,-2.75 -5.21875,2.09375 -1.75,4.09375 -8.125,-1.4375 -5.0625,1.15625 -5.875,1.90625 -1.5625,4.125 -4.28125,-0.3125 -2.09375,0.46875 -1.9375,-2 -2.125,0.90625 -6.5625,-1.65625 -4.625,1.59375 -5.09375,-0.96875 -1.5625,-4.1875 -2.125,-3.21875 L 478.125,94.875 477,96.5625 l -1.5,-2.375 -17.625,-3.03125 -0.375,-2.75 -17.9375,-3.28125 -5.6875,12.71875 -1.65625,-1 -8.6875,18.1875 -42.78125,11.65625 -0.90625,-0.65625 -4.5,-2.5625 -8.59375,0.375 0.15625,-2.8125 -8.34375,-0.875 -14,5.625 -15.3125,1.65625 -2.40625,4.28125 -25.78125,-6.96875 -0.96875,4 -5.4375,1.96875 -8.40625,-4 -0.125,10.46875 -6.09375,1.40625 0.0312,19.09375 13.59375,-2.40625 2.09375,13.4375 -1.03125,4.75 -2.78125,3.625 -5.53125,4.5625 -1.6875,8.875 L 269,190.3125 l -0.375,9.28125 0.65625,18.625 -1.3125,6.875 11.40625,4.5625 -2.46875,7.40625 -6.0625,31.28125 1.59375,7.96875 -21.6875,4.21875 0.15625,14.375 0.0312,4.15625 13.21875,-3.5 -0.46875,-3.09375 5.15625,-1.59375 0.375,3.34375 2.46875,-1.15625 0.875,8.65625 3.03125,4.09375 16.125,5.59375 -3.7187,11.28125 -5.84375,10.28125 0.6875,2.3125 -3.375,8 -0.375,11.625 6.375,3.8125 4.28125,0.125 5.125,3.9375 2.5,7.53125 7.5625,4.8125 -1.0625,5.15625 0.375,0.25 -5.84375,9.46875 -3.625,0.625 -5.03125,1.46875 -16.84375,6.28125 -5.375,-7 -2.15625,11.75 -3.1875,6.15625 -19.9375,11.90625 1.875,1.5 -2.96875,0.9375 9.3125,7.28125 -8.46875,2.375 0.59375,3.625 -22.3125,5.4375 -15.65625,7.9375 -5.8125,9.09375 -7.4375,-0.125 -8.53125,75.96875 -4.65625,19.53125 -5,0.84375 0.84375,11.625 3.875,2.6875 -2.5,10.4375 -12.125,1.0625 -0.125,1.5625 -28.4375,5.25 3.1875,7.3125 -7.75,0.90625 0.5,4 L 119.625,603 l 1.125,3.3125 -1.34375,0.96875 2.15625,5.28125 -3.4375,1.375 -2.59375,1.875 -42.21875,7.625 2.34375,15 -10.4375,-6.9375 -15.59375,2.75 0.3125,2.375 -3.5625,0.65625 3.46875,10.1875 19.6875,27.71875 -27.96875,-0.15625 11.625,54.3125 0.28125,13.96875 3.1875,4.78125 8.625,1.125 -3.96875,-5.1875 13,-6.4375 6.5,-0.84375 5.5,-4.625 6.625,-1.34375 5.6875,-3.71875 21.78125,-4.1875 1,-2.34375 5.5,-0.5 0.46875,-2.71875 21.5625,-1.8125 -0.375,-5.625 16.375,-3.1875 1.1875,-1.3125 4.4375,-0.375 0.21875,2.15625 4.375,-1 0.96875,5.4375 0,0 16.90625,-2.09375 8.375,5.46875 19.0625,7.5625 3.875,11.75 2.96875,4.03125 3.15625,13.625 26.53125,78.875 -4.25,3.15625 3.6875,7.75 0.375,12.34375 9.46875,-5.03125 1.1875,1.3125 17.59375,19.5625 -8.15625,16.46875 42.5625,9.78125 -3.15625,4.34375 4.0625,1.78125 -0.5,1.59375 17.96875,6.59375 7.59375,8.625 1.71875,8.78125 2.28125,1.9375 0.9375,5.3125 2.375,0.5625 5.34375,1.25 2,-4.96875 6.78125,0.6875 1.53125,-2.625 4.375,2.28125 2.875,-5.125 3.125,1.53125 0.9375,-2.8125 2.34375,1.21875 4.8125,-10.9375 -2.21875,-0.875 5.34375,-10.90625 -0.96875,-1.125 4.4375,-6.28125 7.375,-3.03125 5.8125,-7.1875 18.875,-12.8125 3.875,3.46875 2.6875,3.40625 13.96875,4.53125 5.125,-2.96875 2.5,-10.4375 -1.15625,-4.75 L 449.125,865 l -7.59375,-7 -1.8125,-5.65625 -6.40625,-2.78125 -6.3125,-9.25 -1.40625,-5.5625 2.25,-1.125 6.40625,3.09375 4.25,-0.0937 3.34375,-7.3125 8.28125,-10.25 5.78125,-7.9375 9.625,-1.75 -4.1875,-5.28125 2.71875,-10.0625 -8.84375,3.3125 -6.1875,-0.0625 -7.21875,-4.125 -5.75,-5.4375 0,-10.90625 4.90625,-3.4375 4.0625,-4.21875 -1.21875,-6.21875 -4.34375,-1.1875 0.15625,-6.0625 -2.71875,-6.5625 5.4375,-3.65625 0.4375,-3.84375 -1.84375,0.5 -1.53125,-9.6875 -2.28125,-6.78125 6.125,-9.375 10.71875,-10.0625 23.6875,-19.1875 0.0312,0 0.0937,-0.0937 23.15625,-19.21875 5.5,2.625 9.53125,-11.0625 L 528.75,650.125 555.625,632.9375 557,623.25 560.53125,615.84375 572,605 l 5.78125,-3.96875 -0.1875,-4.625 2.875,-4.65625 7.40625,-4.625 5.4375,-6.8125 32.8125,-10.75 3.75,1.09375 4.6875,-2.4375 7.65625,-4.6875 -0.0937,-0.78125 0.0625,0 -0.78125,-5.9375 2.1875,-0.46875 1.1875,-16.8125 -3.40625,-2.25 -7.875,-2.65625 -2.375,-2.75 1.71875,-6.46875 4.1875,-3.59375 0.65625,-13.78125 -5.875,-7.59375 -5.0625,-6.5625 4.46875,-10.0625 -1.84375,-4.09375 -0.0937,-2.9375 -2.375,-4.3125 -0.78125,-6.5 1.59375,-6.15625 5.8125,-4.46875 3.46875,-3.75 1.875,-3.15625 10.1875,-12.46875 4.0625,-2.625 11.28125,-3.90625 5.3125,-5.75 4.71875,-1.4375 -0.4375,-5.6875 3.9375,-6.15625 0.59375,-17.03125 16.6875,-18.5625 6.75,-3.15625 6.21875,-4.90625 2.1875,-11.25 -0.4375,-9.21875 -1.875,-10.53125 -5.96875,-6.375 -0.28125,-5.8125 1.3125,-2.03125 -0.90625,-4.78125 2.5,-3.8125 -0.8125,-3.46875 -4.03125,-5.5625 -3.25,-0.78125 -2.3125,-4.0625 -2.46875,-2.21875 -0.40625,-3.3125 -4.5625,-3.03125 -2.15625,-3.8125 -5.46875,-2 -4.53125,-5.25 -0.375,-5.46875 -1.59375,-1.03125 -5.28125,-5.25 2.875,-1.21875 2.75,-1.4375 7.65625,-1.28125 2.03125,-10.4375 1.15625,-8.375 -2.34375,-2.03125 -0.46875,-10.3125 3.6875,-1.5 -1.1875,-11 -2.1875,-4.03125 -12.0625,-14.03125 -13.1875,-9.46875 -9.4375,-5.0625 2.96875,-12.5 4.34375,-16.0625 -0.96875,-10.03125 -3.46875,-8.09375 9.4375,-1.15625 2.5625,-9.21875 -1.625,-14.40625 -3.5625,-8.125 1.8125,-0.21875 -0.0312,-13.9375 -6.5625,-5.78125 -1.09375,-3.34375 -3.125,-4.15625 -5.65625,0.40625 -4.625,-2.03125 -4.6875,-0.5 -3.1875,-2.15625 -1.5e-4,0 z"
       transform="matrix(0.8,0,0,-0.8,0,841.88952)"
       id="path4624"
       sodipodi:nodetypes="cccccccccccccccccccccccccccccccccccccccccccccccccccccccccccccccccccccccccccccccccccccccccccccccccccccccccccccccccccccccccccccccccccccccccccccccccccccccccccccccccccccccccccccccccccccccccccccccccccccccccccccccccccccccccccccccccccccccccccccccccccccccccccccccccccccccccccccccccccccccccccccccccccccccccccccccccccccccccccccccccccccccccccccccccccccccccc" /></g><g
     inkscape:groupmode="layer"
     inkscape:label="Darmstadt Stadtteile"
     transform="matrix(1.25,0,0,-1.25,-24.263468,977.18125)"
     style="fill:#f07568;fill-opacity:0;stroke:#646464;stroke-width:2;stroke-miterlimit:4;stroke-opacity:1;stroke-dasharray:none;display:inline"
     id="g4814"><path
       style="fill:#b00000;fill-opacity:0;stroke:#646464;stroke-width:2.50000000000000000;stroke-linecap:butt;stroke-linejoin:miter;stroke-miterlimit:4;stroke-opacity:1;stroke-dasharray:none"
       d="m 336.84375,365.375 -2.4375,21.71875 -15,2.1875 -15.15625,-8.75 -5.84375,9.46875 -3.625,0.625 -5.03125,1.46875 -16.84375,6.28125 -5.375,-7 -2.15625,11.75 -3.1875,6.15625 -19.9375,11.90625 1.875,1.5 -2.96875,0.9375 9.3125,7.28125 -8.46875,2.375 0.59375,3.625 -22.3125,5.4375 -15.65625,7.9375 -5.8125,9.09375 -7.4375,-0.125 -8.53125,75.96875 -4.65625,19.53125 -5,0.84375 0.84375,11.625 3.875,2.6875 11.21875,-11.71875 14.59375,-2.3125 0.25,-9 89.4375,-17.0625 14.96875,-3.3125 22.09375,-4.125 -3.0625,-8.375 2.96875,-2.125 -1.46875,-6.5625 6.65625,-1.6875 25.125,-6.28125 1.40625,-21.84375 6.25,0.3125 9.34375,3.5 6.40625,10.125 5.75,0.65625 7.0625,9.1875 3.75,-1.3125 8.0625,-7.8125 9.375,-5.28125 10.4375,-2.375 -5.25,-9.46875 8.84375,-6.1875 4.3125,-7.9375 12.8125,-23.84375 0.15625,-7.65625 -2.53125,-19.3125 -9.90625,-7.75 -14.53125,2.21875 -7.28125,-23.625 -10.375,1.4375 -13.1875,-1.46875 -15.8125,0.5 1.875,-9.03125 -40.8125,-5 z"
       transform="matrix(0.8,0,0,-0.8,0,841.88952)"
       id="path4816" /><path
       style="fill:#f07568;fill-opacity:0;stroke:#646464;stroke-width:2.50000000000000000;stroke-linecap:butt;stroke-linejoin:miter;stroke-miterlimit:4;stroke-opacity:1;stroke-dasharray:none"
       d="m 566.4375,253.8125 -4.125,2.5 -6.8125,-2 -4.1875,1.59375 -8.28125,-1.875 L 536.75,257 l -17.4375,16.125 -10.15625,14.71875 -0.5,3.625 -7.9375,2.1875 -57.5625,61.15625 -18.21875,17.25 -1.8125,5.78125 -7.96875,1.09375 7.28125,23.625 14.53125,-2.21875 9.90625,7.75 9.84375,-11.3125 15.1875,2.03125 13.09375,3.5625 15.125,4.75 4.53125,-5.875 5.25,-4.9375 3.96875,-6.4375 3.65625,-7.84375 11.71875,-4.15625 9.96875,-4.71875 1.1875,-7 15.5625,-7.03125 8.1875,-3.71875 5.75,-11.71875 5.625,-16.5625 10.53125,-8.84375 14.59375,-15.78125 9.9375,-13.1875 14.59375,-7.75 3.875,-6.46875 8.84375,-4.59375 5.15625,0.3125 3.3125,-2.53125 8.71875,1.28125 9.375,-5.03125 -17.96875,-1.125 -12.53125,1.46875 -5.03125,-4.90625 -5.4375,2.96875 -3.53125,-6.9375 -11.4375,3.0625 -16.125,-2.65625 -4.34375,4.28125 -1.875,-5.125 -10.375,-1.15625 -4.78125,1.46875 -4.59375,-2.0625 z"
       transform="matrix(0.8,0,0,-0.8,0,841.88952)"
       id="path4818"
       sodipodi:nodetypes="cccccccccccccccccccccccccccccccccccccccccccccccccccccc" /><path
       style="fill:#b00000;fill-opacity:0;stroke:#646464;stroke-width:2.50000000000000000;stroke-linecap:butt;stroke-linejoin:miter;stroke-miterlimit:4;stroke-opacity:1;stroke-dasharray:none"
       d="m 234.28125,670 -13.8125,14.71875 -13.15625,-3.375 -5.96875,6.09375 -25.21875,24.15625 16.90625,-2.09375 8.375,5.46875 19.0625,7.5625 3.875,11.75 2.96875,4.03125 3.15625,13.625 26.53125,78.875 -4.25,3.15625 3.6875,7.75 0.375,12.34375 9.46875,-5.03125 1.1875,1.3125 17.59375,19.5625 -8.15625,16.46875 42.5625,9.78125 -3.15625,4.34375 4.0625,1.78125 -0.5,1.59375 17.96875,6.59375 7.59375,8.625 1.71875,8.78125 2.28125,1.9375 0.9375,5.3125 2.375,0.5625 5.34375,1.25 2,-4.96875 6.78125,0.6875 1.53125,-2.625 4.375,2.28125 2.875,-5.125 3.125,1.53125 0.9375,-2.8125 2.34375,1.21875 4.8125,-10.9375 -2.21875,-0.875 5.34375,-10.90625 -0.96875,-1.125 4.4375,-6.28125 7.375,-3.03125 5.8125,-7.1875 18.875,-12.8125 3.875,3.46875 2.6875,3.40625 13.96875,4.53125 5.125,-2.96875 2.5,-10.4375 -1.15625,-4.75 L 449.125,865 l -7.59375,-7 -1.8125,-5.65625 -6.40625,-2.78125 -6.3125,-9.25 -1.40625,-5.5625 2.25,-1.125 6.40625,3.09375 4.25,-0.0937 3.34375,-7.3125 8.28125,-10.25 5.78125,-7.9375 9.625,-1.75 -4.1875,-5.28125 2.71875,-10.0625 -8.84375,3.3125 -6.1875,-0.0625 -7.21875,-4.125 -5.75,-5.4375 0,-10.90625 4.90625,-3.4375 4.0625,-4.21875 -1.21875,-6.21875 -4.34375,-1.1875 0.15625,-6.0625 -2.71875,-6.5625 5.4375,-3.65625 0.4375,-3.84375 -1.84375,0.5 -1.53125,-9.6875 -2.28125,-6.78125 6.125,-9.375 -4.625,-4.96875 -2.375,-11.125 -5.34375,-1.5 -5.0625,-7.34375 -10.09375,-7.2188 -13.375,5.375 -15.875,-2.9375 -7.15625,3.1875 -7.09375,-2.625 -10.34375,-1.53125 -18.875,-4.3125 -49.375,2.125 -32.3125,-8.375 -23.625,-0.90625 -3.4375,-4.125 z"
       transform="matrix(0.8,0,0,-0.8,0,841.88952)"
       id="path4820" /><path
       style="fill:#b00000;fill-opacity:0;stroke:#646464;stroke-width:2.50000000000000000;stroke-linecap:butt;stroke-linejoin:miter;stroke-miterlimit:4;stroke-opacity:1;stroke-dasharray:none"
       d="m 411.71875,551.25 -19.25,10.625 -8.875,7.15625 -7.96875,-7.4375 -3.03125,6.28125 3.625,8.71875 -5.625,2.90625 -8.40625,-2.71875 -13,-0.75 -1.4375,6.875 -7.65625,0.53125 -1.28125,17.21875 -1.40625,5.6875 -4.1875,13.34375 -18.09375,62.625 27.53125,-1.25 18.875,4.3125 10.375,1.53125 7.0625,2.625 7.1875,-3.1875 15.84375,2.9375 13.375,-5.375 10.125,7.21875 5.03125,7.34375 5.375,1.5 2.375,11.125 4.96875,5.1875 10.71875,-10.0625 23.8125,-19.28125 L 463.03125,683 450.4375,673.5625 443,647.75 442.6875,632.8125 431.125,628 l -5.9375,-18.6875 -3.21875,-32.0625 -10.25,-26 z"
       transform="matrix(0.8,0,0,-0.8,0,841.88952)"
       id="path4822" /><path
       style="fill:#b00000;fill-opacity:0.6901961;stroke:#646464;stroke-width:2.50000000000000000;stroke-linecap:butt;stroke-linejoin:miter;stroke-miterlimit:4;stroke-opacity:1;stroke-dasharray:none"
       d="m 362.09375,475.5 -1.28125,17.78125 -0.0625,3.375 -0.0625,0.6875 -8.3125,2.59375 -23.46875,5.375 1.46875,6.5625 -2.96875,2.125 3.0625,8.375 2.1875,14.5 2.09375,13.5625 1.6875,11 2.71875,8.78125 0.9375,13.21875 7.65625,-0.53125 1.4375,-6.875 13.375,0.96875 8.03125,2.5 5.625,-2.90625 -3.625,-8.71875 3.03125,-6.28125 7.96875,7.4375 8.875,-7.15625 19.25,-10.625 -10.25,-15.34375 1,-21.03125 -4.1875,-0.125 0.0937,-0.53125 1.59375,-8.53125 -3.0625,-6.40625 -7.0625,-9.1875 -5.75,-0.65625 -6.40625,-10.125 -9.34375,-3.5 -6.25,-0.3125 z"
       transform="matrix(0.8,0,0,-0.8,0,841.88952)"
       id="path4828" /><path
       style="fill:#f07568;fill-opacity:0;stroke:#646464;stroke-width:2.50000000000000000;stroke-linecap:butt;stroke-linejoin:miter;stroke-miterlimit:4;stroke-opacity:1;stroke-dasharray:none"
       d="m 330.46875,522.375 -22.09375,4.125 -14.96875,3.3125 -3.96875,0.75 -85.46875,16.3125 -0.25,9 -14.59375,2.3125 -11.21875,11.71875 -2.5,10.4375 -12.125,1.0625 -0.125,1.5625 -28.4375,5.25 3.1875,7.3125 -7.75,0.90625 0.5,4 L 119.625,603 l 1.125,3.3125 -1.34375,0.96875 2.15625,5.28125 -3.4375,1.375 -2.59375,1.875 -42.21875,7.625 2.34375,15 -10.4375,-6.9375 -15.59375,2.75 0.3125,2.375 -3.5625,0.65625 3.46875,10.1875 19.6875,27.71875 -27.96875,-0.15625 11.625,54.3125 0.28125,13.96875 3.1875,4.78125 8.625,1.125 -3.96875,-5.1875 13,-6.4375 6.5,-0.84375 5.5,-4.625 6.625,-1.34375 5.6875,-3.71875 21.78125,-4.1875 1,-2.34375 5.5,-0.5 0.46875,-2.71875 21.5625,-1.8125 -0.375,-5.625 16.375,-3.1875 1.1875,-1.3125 4.4375,-0.375 0.21875,2.15625 4.375,-1 0.96875,5.4375 31.1875,-30.25 13.15625,3.375 13.8125,-14.71875 3.4375,4.125 23.625,0.90625 32.3125,8.375 21.46875,-1.09375 5.15625,-19 17.125,-56.96875 1.40625,-5.6875 0.78125,-7.625 0.5,-9.59375 -0.9375,-13.21875 -2.71875,-8.78125 -5.96875,-39.0625 z"
       transform="matrix(0.8,0,0,-0.8,0,841.88952)"
       id="path4830" /><path
       style="fill:#f07568;fill-opacity:0;stroke:#646464;stroke-width:2.50000000000000000;stroke-linecap:butt;stroke-linejoin:miter;stroke-miterlimit:4;stroke-opacity:1;stroke-dasharray:none"
       d="m 646.5,263.40625 17.96875,1.125 -9.375,5.03125 -8.71875,-1.28125 -3.3125,2.53125 -5.15625,-0.34375 -8.84375,4.625 -3.875,6.46875 -14.59375,7.75 -9.9375,13.1875 -14.59375,15.78125 -10.53125,8.84375 -5.625,16.5625 -5.75,11.71875 -8.1875,3.71875 -15.5625,7.03125 -1.1875,7 -9.96875,4.71875 -11.71875,4.15625 -3.65625,7.84375 -3.96875,6.4375 -5.25,4.9375 -4.53125,5.875 -15.125,-4.75 -13.09375,-3.5625 -15.1875,-2.03125 -9.84375,11.3125 2.53125,19.3125 -0.15625,7.65625 -17.125,31.78125 -8.84375,6.1875 5.25,9.46875 -10.4375,2.375 -9.375,5.28125 -8.0625,7.8125 -3.75,1.3125 3.0625,6.40625 -1.6875,9.0625 4.1875,0.125 -1,21.03125 10.25,15.34375 10.625,26.21875 3.21875,32.0625 5.90625,18.6875 11.5625,4.8125 0.3125,14.9375 7.4375,25.8125 12.625,9.4375 14.28125,3.8125 23.25,-19.3125 5.5,2.625 9.53125,-11.0625 L 528.75,650.125 555.625,632.9375 557,623.25 560.53125,615.84375 572,605 l 5.78125,-3.96875 -0.1875,-4.625 2.875,-4.65625 7.40625,-4.625 5.4375,-6.8125 32.8125,-10.75 3.75,1.09375 4.6875,-2.4375 7.65625,-4.6875 -0.0937,-0.78125 0.0625,0 -0.78125,-5.9375 2.1875,-0.46875 1.1875,-16.8125 -3.40625,-2.25 -7.875,-2.65625 -2.375,-2.75 1.71875,-6.46875 4.1875,-3.59375 0.65625,-13.78125 -5.875,-7.59375 -5.0625,-6.5625 4.46875,-10.0625 -1.84375,-4.09375 -0.0937,-2.9375 -2.375,-4.3125 -0.78125,-6.5 1.59375,-6.15625 5.8125,-4.46875 3.46875,-3.75 1.875,-3.15625 10.1875,-12.46875 4.0625,-2.625 11.28125,-3.90625 5.3125,-5.75 4.71875,-1.4375 -0.4375,-5.6875 3.9375,-6.15625 0.59375,-17.03125 16.6875,-18.5625 6.75,-3.15625 6.21875,-4.90625 2.1875,-11.25 -0.4375,-9.21875 -1.875,-10.53125 -5.96875,-6.375 -0.28125,-5.8125 1.3125,-2.03125 -0.90625,-4.78125 2.5,-3.8125 -0.8125,-3.46875 -4.03125,-5.5625 -3.25,-0.78125 -2.3125,-4.0625 -2.46875,-2.21875 -0.40625,-3.3125 -4.5625,-3.03125 -2.15625,-3.8125 -5.46875,-2 -4.53125,-5.25 -0.375,-5.46875 -1.59375,-1.03125 -5.28125,-5.25 2.875,-1.21875 2.75,-1.4375 -26.59375,-1.625 z"
       transform="matrix(0.8,0,0,-0.8,0,841.88952)"
       id="path4836"
       sodipodi:nodetypes="ccccccccccccccccccccccccccccccccccccccccccccccccccccccccccccccccccccccccccccccccccccccccccccccccccccccccccccccccccccccccccc" /><path
       style="fill:#f07568;fill-opacity:0;stroke:#646464;stroke-width:2.50000000000000000;stroke-linecap:butt;stroke-linejoin:miter;stroke-miterlimit:4;stroke-opacity:1;stroke-dasharray:none"
       d="m 349.09375,229.65625 -0.0625,12.8125 -31.75,-4.4375 -3.0625,4.59375 -37.3125,-5.5625 -6.0625,31.28125 1.59375,7.96875 -21.6875,4.21875 0.15625,14.375 0.0312,4.15625 13.21875,-3.5 -0.46875,-3.09375 5.15625,-1.59375 0.375,3.34375 2.46875,-1.15625 0.875,8.65625 3.03125,4.09375 16.125,5.59375 -3.7187,11.28125 -5.84375,10.28125 0.6875,2.3125 -3.375,8 -0.375,11.625 6.375,3.8125 4.28125,0.125 5.125,3.9375 2.5,7.53125 7.5625,4.8125 -1.0625,5.15625 15.53125,9 15,-2.1875 2.4375,-21.71875 40.8125,5 -1.875,9.03125 15.8125,-0.5 13.1875,1.46875 18.34375,-2.53125 1.8125,-5.78125 18.21875,-17.25 57.5625,-61.15625 7.9375,-2.1875 0.5,-3.625 L 519.3125,273.125 536.75,257 l -45.1875,-3.5 -19.71875,-8.96875 -27.125,-5.75 -16.0625,4.5625 -15.65625,1.6875 -13.03125,4.65625 -13.5,1.21875 -9.3125,-6.8125 -0.0312,0.71875 -6.71875,4.8125 -5.21875,-5.59375 -3.1875,-7.75 -12.90625,-6.625 z"
       transform="matrix(0.8,0,0,-0.8,0,841.88952)"
       id="path4838" /><path
       style="fill:#b00000;fill-opacity:0;stroke:#646464;stroke-width:2.50000000000000000;stroke-linecap:butt;stroke-linejoin:miter;stroke-miterlimit:4;stroke-opacity:1;stroke-dasharray:none"
       d="m 629.28125,76.1875 -4.0625,0.46875 -2.15625,5.0625 -5.59375,1.875 -2.5,3.78125 L 609,80.9375 599.6875,84.875 597.71875,84.71875 590.5,90.4375 l -15.8125,-0.46875 -5,3.71875 -5.40625,1.53125 -3.5,-1.4375 -3.34375,4.28125 -6.875,-4.1875 -5.875,2.15625 -4.21875,-2.75 -5.21875,2.09375 -1.75,4.09375 -8.125,-1.4375 -5.0625,1.15625 -5.875,1.90625 -1.5625,4.125 -4.28125,-0.3125 -2.09375,0.46875 -1.9375,-2 -2.125,0.90625 -6.5625,-1.65625 -4.625,1.59375 -5.09375,-0.96875 -1.5625,-4.1875 -2.125,-3.21875 L 478.125,94.875 477,96.5625 l -1.5,-2.375 -17.625,-3.03125 -0.375,-2.75 -17.9375,-3.28125 -5.6875,12.71875 -1.65625,-1 -8.6875,18.1875 -42.78125,11.65625 -0.90625,-0.65625 -4.5,-2.5625 -8.59375,0.375 0.15625,-2.8125 -8.34375,-0.875 -14,5.625 -15.3125,1.65625 -2.40625,4.28125 -25.78125,-6.96875 -0.96875,4 -5.4375,1.96875 -8.40625,-4 -0.125,10.46875 -6.09375,1.40625 0.0312,19.09375 13.59375,-2.40625 2.09375,13.4375 -1.03125,4.75 -2.78125,3.625 -5.53125,4.5625 -1.6875,8.875 L 269,190.3125 l -0.375,9.28125 0.65625,18.625 -1.3125,6.875 11.40625,4.5625 -2.46875,7.40625 37.3125,5.5625 3.0625,-4.59375 31.75,4.4375 0.0625,-12.8125 12.90625,6.625 3.1875,7.75 5.21875,5.59375 7.25,-5.1875 8.8125,6.46875 13.5,-1.21875 13.03125,-4.65625 15.65625,-1.6875 16.0625,-4.5625 27.125,5.75 19.6875,8.96875 45.21875,3.5 6.28125,-2.96875 8.28125,1.875 4.1875,-1.59375 6.8125,2 4.125,-2.5 4.59375,2.0625 4.78125,-1.46875 10.375,1.15625 1.875,5.125 4.34375,-4.28125 16.125,2.65625 11.4375,-3.0625 3.53125,6.9375 5.4375,-2.96875 5.03125,4.90625 12.53125,-1.46875 14.0625,0.875 12.53125,0.75 7.65625,-1.28125 2.03125,-10.4375 1.15625,-8.375 -2.34375,-2.03125 -0.46875,-10.3125 3.6875,-1.5 -1.1875,-11 -2.1875,-4.03125 -12.0625,-14.03125 -13.1875,-9.46875 -9.4375,-5.0625 2.96875,-12.5 4.34375,-16.0625 -0.96875,-10.03125 -3.46875,-8.09375 9.4375,-1.15625 2.5625,-9.21875 -1.625,-14.40625 -3.5625,-8.125 1.8125,-0.21875 -0.0312,-13.9375 -6.5625,-5.78125 -1.09375,-3.34375 -3.125,-4.15625 -5.65625,0.40625 -4.625,-2.03125 -4.6875,-0.5 -3.1875,-2.15625 z"
       transform="matrix(0.8,0,0,-0.8,0,841.88952)"
       id="path4842" /></g><g
     id="g4044"
     style="fill:#b00000;fill-opacity:0;stroke:#646464;stroke-width:0.80000000000000004;stroke-miterlimit:4;stroke-opacity:1;stroke-dasharray:none;display:inline"
     transform="matrix(1.25,0,0,-1.25,-24.263468,977.18125)"
     inkscape:label="Darmstadt Bezirkslinien"
     inkscape:groupmode="layer"><path
       d="m 292.143,478.787 8.483,59.57 12.64,0.407 10.569,-1.164 8.296,1.139 5.818,-18.892 11.635,1.776 7.923,-6.201 2.016,-15.461 -0.121,-6.125 -10.264,-19.079 -3.43,-6.341 -7.085,-4.951 -7.607,4.851 -13.93,4.423 -12.463,3.973 -12.48,2.075 z"
       id="path4086"
       style="fill:#b00000;fill-opacity:0;stroke:#646464;stroke-width:0.80000000000000004;stroke-linecap:butt;stroke-linejoin:miter;stroke-miterlimit:4;stroke-opacity:1;stroke-dasharray:none" /><path
       d="m 407.93,524.832 -4.193,-3.954 -3.649,-4.697 -12.077,3.816 -10.478,2.849 -12.16,1.617 -7.866,-9.042 -7.923,6.201 -11.635,-1.776 -5.818,18.893 6.373,0.875 1.454,4.62 14.562,13.802 11.247,-7.842 2.069,3.14 6.227,-5.069 4.686,-1.869 0.171,-2.751 6.541,-1.338 1.695,2.275 3.492,-0.413 6.344,-6.113 3.421,-9.406 7.517,-3.818 z"
       id="path4114"
       style="fill:#b00000;fill-opacity:0;stroke:#646464;stroke-width:0.80000000000000004;stroke-linecap:butt;stroke-linejoin:miter;stroke-miterlimit:4;stroke-opacity:1;stroke-dasharray:none" /><path
       d="m 269.578,162.722 0.282,2.917 6.646,-0.949 4.224,1.425 1.802,3.442 1.06,5.141 0.317,11.853 -1.953,4.911 14.505,4.891 5.872,1.834 10.599,0.087 2.978,2.683 10.417,-0.007 6.309,6.968 5.353,5.099 10.871,-1.297 4.598,-4.354 5.779,-3.302 4.942,-0.057 7.078,2.666 -2.171,-8.055 3.334,-4.227 -7.706,-1.405 -4.614,-6.342 -6.635,-8.211 -2.677,-5.849 -3.397,-0.071 -5.111,2.47 -1.804,-0.892 1.13,-4.443 5.036,-7.412 5.14,-2.215 1.448,-4.528 6.071,-5.602 2.729,-1.77 0.919,-3.817 -1.987,-8.341 -4.111,-2.381 -11.188,3.639 -2.143,2.715 -3.097,2.77 -15.109,-10.243 -4.634,-5.749 -5.9,-2.412 -3.551,-5.042 0.77,-0.898 -4.271,-8.729 1.764,-0.687 -3.836,-8.752 -1.872,0.965 -0.75,-2.2543 -2.516,1.2463 -2.295,-4.1115 -3.493,1.823 -1.239,-2.1086 -5.423,0.5645 -1.582,-3.9797 -4.293,1.0109 -7,29.8704 -1.125,33.823 -6.696,-0.194 2.206,5.873 z"
       id="path4124"
       style="fill:#b00000;fill-opacity:0;stroke:#646464;stroke-width:0.80000000000000004;stroke-linecap:butt;stroke-linejoin:miter;stroke-miterlimit:4;stroke-opacity:1;stroke-dasharray:none" /><path
       d="m 344.89,339.48 9.255,-3.834 0.248,-11.962 5.945,-20.637 10.094,-7.564 11.796,-3.14 -19.044,-15.438 -8.573,-8.042 -3.995,4.161 -1.895,8.884 -4.284,1.201 -4.048,5.882 -8.085,5.768 -10.697,-4.285 -12.694,2.347 -5.733,-2.546 -5.666,2.085 -8.277,1.238 -15.101,3.439 -22.025,-1.003 14.475,50.107 10.99,-0.898 14.961,-0.663 11.136,-0.081 2.797,1.267 3.957,-7.552 10.087,-2.873 5.108,-0.378 19.268,4.517 z"
       id="path4126"
       style="fill:#b00000;fill-opacity:0;stroke:#646464;stroke-width:0.80000000000000004;stroke-linecap:butt;stroke-linejoin:miter;stroke-miterlimit:4;stroke-opacity:1;stroke-dasharray:none" /><path
       d="m 176.377,263.858 -15.243,6.048 -6.702,4.388 -13.538,-1.691 20.182,19.348 4.783,4.858 10.525,-2.693 11.029,11.78 2.764,-3.3 18.889,-0.742 25.863,-6.683 39.495,1.69 15.101,-3.438 8.277,-1.239 5.666,-2.084 5.733,2.546 12.693,-2.347 10.699,4.285 8.084,-5.769 4.048,-5.881 4.284,-1.201 1.894,-8.885 3.708,-3.984 -4.902,-7.497 -6.305,-9.033 -5.273,-17.748 -8.106,-9.517 -18.593,-9.349 -4.461,0.601 -25.977,0.386 -9.606,0.597 -0.436,3.559 -3.255,-1.583 -2.601,1.285 -3.674,1.061 -5.926,-0.244 6.834,13.148 -85.953,29.328 z"
       id="path4128"
       style="fill:#b00000;stroke:#646464;stroke-width:0.80000000000000004;stroke-linecap:butt;stroke-linejoin:miter;stroke-miterlimit:4;stroke-opacity:1;stroke-dasharray:none;fill-opacity:0" /><path
       d="m 300.982,380.617 -2.912,6.969 2.428,5.037 6.382,-5.966 7.086,5.735 15.411,8.505 8.203,-20.8 2.579,-25.652 4.731,-14.964 -19.269,-4.517 -5.107,0.378 -10.087,2.873 -3.957,7.551 -3.537,6.222 -2.12,1.682 0.169,26.947 z"
       id="path4156"
       style="fill:#b00000;fill-opacity:0;stroke:#646464;stroke-width:0.80000000000000004;stroke-linecap:butt;stroke-linejoin:miter;stroke-miterlimit:4;stroke-opacity:1;stroke-dasharray:none" /><path
       d="m 318.706,430.52 -0.079,-0.431 3.336,-0.09 -0.795,-16.829 8.209,-12.274 -15.411,-8.504 -7.086,-5.735 -6.382,5.964 3.521,8.709 -0.564,6.121 0.183,3.789 2.029,4.578 1.693,7.132 -7.862,6.326 9.494,1.788 9.714,-0.544 z"
       id="path4184"
       style="fill:#b00000;fill-opacity:0;stroke:#646464;stroke-width:0.80000000000000004;stroke-linecap:butt;stroke-linejoin:miter;stroke-miterlimit:4;stroke-opacity:1;stroke-dasharray:none" /><path
       style="fill:#b00000;fill-opacity:0;stroke:#646464;stroke-width:1;stroke-linecap:butt;stroke-linejoin:miter;stroke-miterlimit:4;stroke-opacity:1;stroke-dasharray:none"
       d="m 293.40625,529.8125 -3.96875,0.75 -85.46875,16.3125 -0.25,9 -14.59375,2.3125 -11.21875,11.71875 -2.5,10.4375 -12.125,1.0625 -0.125,1.5625 -28.4375,5.25 3.1875,7.3125 -7.75,0.90625 0.5,4 L 119.625,603 l 1.125,3.3125 -1.34375,0.96875 2.15625,5.28125 -3.4375,1.375 -2.59375,1.875 -42.21875,7.625 2.34375,15 -10.4375,-6.9375 -15.59375,2.75 0.3125,2.375 -3.5625,0.65625 3.46875,10.1875 19.6875,27.71875 -27.96875,-0.15625 11.625,54.3125 0.28125,13.96875 3.1875,4.78125 8.625,1.125 -3.96875,-5.1875 13,-6.4375 6.5,-0.84375 5.5,-4.625 6.625,-1.34375 5.6875,-3.71875 21.78125,-4.1875 1,-2.34375 5.5,-0.5 0.46875,-2.71875 21.5625,-1.8125 -0.375,-5.625 16.375,-3.1875 1.1875,-1.3125 4.4375,-0.375 0.21875,2.15625 4.375,-1 0.96875,5.4375 31.1875,-30.25 97.1875,-89.9375 -9.09375,-26.15625 -3.09375,-15.875 1.09375,-19.5625 z"
       transform="matrix(0.8,0,0,-0.8,0,841.88952)"
       id="path4212" /><path
       d="m 163.168,404.402 -0.184,-7.211 -11.691,-1.854 -8.976,-9.363 -3.082,2.137 -0.673,9.301 3.984,0.683 3.718,15.612 6.831,60.775 5.966,-0.089 4.632,7.262 12.537,6.351 17.856,4.36 -0.497,2.907 6.778,1.891 -7.453,5.825 2.379,0.746 -1.486,1.199 15.937,9.536 2.561,4.92 1.721,9.405 4.306,-5.612 10.353,-18.272 -8.967,-20.496 3.774,-26.054 1.694,-17.06 1.659,-15.674 7.884,-7.591 -71.561,-13.634 z"
       id="path4240"
       style="fill:#b00000;fill-opacity:0;stroke:#646464;stroke-width:0.80000000000000004;stroke-linecap:butt;stroke-linejoin:miter;stroke-miterlimit:4;stroke-opacity:1;stroke-dasharray:none" /><path
       d="m 400.587,606.971 6.348,1.738 0.382,2.906 8.131,11.773 13.964,12.913 5.01,2.37 6.636,-1.5 3.331,1.258 5.449,-1.593 3.319,2.005 3.663,-1.656 3.821,1.172 8.316,-0.909 1.492,-4.097 3.478,3.41 12.903,-2.122 9.147,2.449 2.821,-5.545 4.34,2.361 4.047,-3.926 10.026,1.179 14.354,-0.903 -7.486,-4.008 -6.977,1.031 -2.654,-2.025 -4.123,0.25 -7.082,-3.699 -3.102,-5.174 -11.655,-6.193 -7.965,-10.541 -11.673,-12.62 -8.434,-7.073 -4.5,-13.262 -4.58,-9.373 -6.547,-2.971 -12.463,-5.632 -0.947,-5.605 -7.981,-3.779 -9.383,-3.326 -2.909,-6.272 -3.174,-5.151 -7.517,3.819 -3.42,9.405 -6.345,6.114 -3.491,0.412 -1.696,-2.275 -6.541,1.339 -0.171,2.751 -4.686,1.868 -6.225,5.07 -2.071,-3.14 -11.247,7.842 46.067,48.935 z"
       id="path4268"
       style="fill:#b00000;fill-opacity:0;stroke:#646464;stroke-width:0.80000000000000004;stroke-linecap:butt;stroke-linejoin:miter;stroke-miterlimit:4;stroke-opacity:1;stroke-dasharray:none" /><path
       d="m 345.708,468.416 13.694,25.42 0.121,6.125 -2.018,15.46 7.868,9.042 12.16,-1.617 10.478,-2.849 12.077,-3.816 3.649,4.697 4.193,3.954 3.173,5.15 2.91,6.273 9.382,3.325 7.982,3.78 0.946,5.605 12.463,5.632 6.548,2.97 4.579,9.374 4.5,13.261 8.433,7.074 11.674,12.619 7.965,10.541 11.656,6.194 3.102,5.173 7.08,3.7 4.123,-0.251 2.655,2.025 6.978,-1.031 7.485,4.009 -14.355,0.903 21.269,-1.303 -2.205,-1.131 -2.295,-0.985 4.216,-4.19 1.292,-0.844 0.3,-4.355 3.614,-4.201 4.364,-1.614 1.736,-3.05 3.638,-2.408 0.328,-2.666 1.995,-1.768 1.83,-3.247 2.611,-0.635 3.234,-4.458 0.636,-2.757 -2.004,-3.055 0.735,-3.817 -1.061,-1.635 0.238,-4.653 4.761,-5.097 1.498,-8.429 0.362,-7.376 -1.743,-8.993 -4.971,-3.933 -5.423,-2.51 -13.342,-14.852 -0.466,-13.622 -3.146,-4.931 0.344,-4.551 -3.773,-1.163 -4.257,-4.591 -9.017,-3.112 -3.264,-2.119 -8.139,-9.964 -1.511,-2.518 -2.769,-3.02 -4.656,-3.563 -1.27,-4.935 0.625,-5.191 1.893,-3.444 0.087,-2.368 1.484,-3.273 -3.586,-8.048 4.054,-5.238 4.701,-6.075 -0.531,-11.041 -3.353,-2.858 -1.361,-5.183 1.884,-2.193 6.31,-2.118 2.726,-1.817 -0.957,-13.439 -1.753,-0.383 0.623,-4.759 -15.723,4.904 -6.133,1.645 -11.902,1.496 -9.096,-4.41 -10.486,1.16 -10.17,2.992 -13.193,-2.089 -13.699,0.884 -26.656,10.419 -4.846,-0.873 -3.787,3.134 -4.44,-3.508 -21.426,16.277 -9.421,14.288 -14.143,25.467 7.085,4.951 z"
       id="path4270"
       style="fill:#b00000;fill-opacity:0;stroke:#646464;stroke-width:0.80000000000000004;stroke-linecap:butt;stroke-linejoin:miter;stroke-miterlimit:4;stroke-opacity:1;stroke-dasharray:none" /><path
       d="m 243.093,537.654 0.868,4.141 -6.073,3.845 -1.977,6.028 -4.119,3.143 -3.41,0.11 -5.095,3.036 0.286,9.298 2.703,6.421 -0.557,1.831 4.678,8.243 2.969,9.019 -12.885,4.47 -2.422,3.272 -0.716,6.935 -1.98,-0.936 -0.3,2.686 -4.108,-1.272 0.371,-2.496 -10.583,-2.798 -0.019,3.341 -0.136,11.493 17.355,3.37 -1.263,6.377 4.833,25.023 29.858,-4.434 2.465,3.669 25.386,-3.549 0.049,10.244 10.336,-5.306 2.544,-6.202 4.166,-4.454 5.392,3.847 -0.936,-39.315 1.534,-0.424 1.682,-4.695 3.635,-5.119 1.799,0.005 -7.307,-50.901 -32.637,3.979 -1.944,-17.365 -12.015,-1.757 -12.427,7.197 z"
       id="path4272"
       style="fill:#b00000;fill-opacity:0;stroke:#646464;stroke-width:0.80000000000000004;stroke-linecap:butt;stroke-linejoin:miter;stroke-miterlimit:4;stroke-opacity:1;stroke-dasharray:none" /><path
       d="m 243.611,368.757 -7.278,20.923 -2.491,12.702 0.887,15.654 11.98,2.657 17.654,3.297 4.775,-31.252 2.178,-7.022 0.754,-10.588 -0.383,-7.657 -28.076,1.286 z"
       id="path4300"
       style="fill:#b00000;fill-opacity:0;stroke:#646464;stroke-width:0.80000000000000004;stroke-linecap:butt;stroke-linejoin:miter;stroke-miterlimit:4;stroke-opacity:1;stroke-dasharray:none" /><path
       d="m 528.438,630.47 -11.229,0.688 -10.024,-1.179 -4.047,3.926 -4.34,-2.36 -2.822,5.544 -9.146,-2.45 -12.904,2.123 -3.478,-3.41 -1.491,4.097 -8.316,0.908 -3.821,-1.171 -3.663,1.655 -3.319,-2.005 -5.449,1.594 -3.332,-1.257 -6.636,1.499 -5.01,-2.37 -36.175,2.781 -15.769,7.175 -21.696,4.619 -12.857,-3.666 -12.515,-1.341 -10.418,-3.727 -10.811,-0.989 -7.056,5.185 -5.798,-4.138 -4.165,4.455 -2.545,6.202 -10.335,5.306 7.567,87.601 6.699,-0.69 -0.144,-2.272 6.894,0.302 3.595,-2.028 0.717,-0.527 34.218,9.304 6.953,14.553 1.341,-0.796 4.533,10.172 14.358,-2.62 0.296,-2.193 14.091,-2.419 1.22,-1.901 0.891,1.348 3.464,-0.791 1.713,-2.576 1.239,-3.332 4.089,-0.784 3.688,1.271 5.251,-1.323 1.715,0.738 1.546,-1.62 1.677,0.377 3.411,-0.249 1.245,3.305 4.7,1.52 4.057,0.933 6.502,-1.163 1.396,3.291 4.193,1.682 3.37,-2.224 4.7,1.735 5.492,-3.354 2.673,3.442 2.796,-1.168 4.34,1.244 4.001,2.96 12.63,-0.366 5.798,4.574 1.566,-0.135 7.442,3.163 4.771,-5.169 2.01,3.042 4.473,1.505 1.732,4.038 3.238,0.381 2.553,-1.734 3.746,-0.397 3.702,-1.636 4.525,0.332 2.499,-3.319 0.887,-2.668 5.256,-4.633 0.007,-11.161 -1.44,-0.172 2.842,-6.49 1.3,-11.536 -2.052,-7.369 -7.544,-0.928 2.78,-6.477 0.762,-8.011 -3.476,-12.856 -2.376,-9.988 7.573,-4.055 10.545,-7.579 9.631,-11.234 1.77,-3.211 0.953,-8.799 -2.959,-1.215 0.369,-8.245 1.889,-1.627 -0.944,-6.687 -1.618,-8.348 -6.12,-1.047 -10.546,0.647 0.506,-0.032 z"
       id="path4328"
       style="fill:#b00000;fill-opacity:0;stroke:#646464;stroke-width:0.80000000000000004;stroke-linecap:butt;stroke-linejoin:miter;stroke-miterlimit:4;stroke-opacity:1;stroke-dasharray:none" /><path
       d="m 301.722,646.627 7.448,-5.473 10.811,0.989 10.419,3.727 12.514,1.341 12.857,3.666 21.697,-4.619 15.77,-7.176 36.174,-2.78 -13.964,-12.914 -8.131,-11.772 -0.382,-2.906 -6.348,-1.738 -46.067,-48.935 -14.562,-13.803 -1.453,-4.62 -14.67,-2.014 -10.568,1.164 -12.641,-0.407 1.49,7.243 7.307,50.901 -1.799,-0.004 -3.635,5.118 -1.682,4.695 -1.534,0.424 0.949,39.893 z"
       id="path4330"
       style="fill:#b00000;fill-opacity:0;stroke:#646464;stroke-width:0.80000000000000004;stroke-linecap:butt;stroke-linejoin:miter;stroke-miterlimit:4;stroke-opacity:1;stroke-dasharray:none" /><path
       d="m 279.271,658.163 -0.049,-10.244 -25.386,3.55 -2.465,-3.669 -29.858,4.433 1.989,5.924 -9.126,3.668 1.046,5.489 -0.53,14.891 0.312,7.445 12.567,-0.191 1.351,7.116 4.437,3.638 2.215,2.895 0.835,3.802 -1.694,10.744 -10.866,-1.911 -0.026,15.26 4.878,1.129 0.102,8.388 6.714,-3.212 4.348,1.572 0.789,3.204 20.63,-5.572 1.918,3.436 12.244,1.305 11.192,4.511 -7.567,-87.601 z"
       id="path4358"
       style="fill:#b00000;fill-opacity:0;stroke:#646464;stroke-width:0.80000000000000004;stroke-linecap:butt;stroke-linejoin:miter;stroke-miterlimit:4;stroke-opacity:1;stroke-dasharray:none" /><path
       d="m 302.238,646.427 -0.124,-0.088 0.124,0.088 z"
       id="path4362"
       style="fill:#b00000;fill-opacity:0;stroke:#646464;stroke-width:0.80000000000000004;stroke-linecap:butt;stroke-linejoin:miter;stroke-miterlimit:4;stroke-opacity:1;stroke-dasharray:none" /><path
       d="m 355.771,650.877 21.697,-4.619 15.77,-7.176 36.173,-2.78 -13.963,-12.914 -8.131,-11.773 -0.382,-2.906 -6.348,-1.738 -46.067,-48.935 -14.562,-13.802 -1.453,-4.621 -14.67,-2.013 9.476,33.191 12.378,0.111 -4.346,2.842 3.4,5.038 3.426,1.857 3.679,-1.6 0.781,5.329 -4.869,8.248 5.16,11.677 6.112,2.53 -3.261,44.054 z"
       id="path4366"
       style="fill:#b00000;fill-opacity:0;stroke:#646464;stroke-width:0.80000000000000004;stroke-linecap:butt;stroke-linejoin:miter;stroke-miterlimit:4;stroke-opacity:1;stroke-dasharray:none" /><path
       d="m 308.17,587.779 1.252,8.722 -1.799,-0.004 -3.635,5.118 -1.681,4.695 -1.534,0.424 0.948,39.893 7.449,-5.473 10.811,0.989 10.418,3.727 12.515,1.341 12.856,3.666 3.262,-44.052 -6.112,-2.532 -5.16,-11.676 4.867,-8.249 -0.779,-5.329 -3.68,1.6 -3.425,-1.857 -9.552,9.677 -5.586,2.593 -6.179,-0.031 -8.124,-3.232 -7.132,-0.01 z"
       id="path4394"
       style="fill:#b00000;fill-opacity:0;stroke:#646464;stroke-width:0.80000000000000004;stroke-linecap:butt;stroke-linejoin:miter;stroke-miterlimit:4;stroke-opacity:1;stroke-dasharray:none" /><path
       d="m 344.743,578.782 -3.4,-5.038 4.346,-2.842 -12.379,-0.111 -9.475,-33.191 -10.569,1.164 -12.64,-0.407 1.49,7.243 6.055,42.179 7.131,0.009 8.124,3.233 6.179,0.031 5.586,-2.593 9.552,-9.677 z"
       id="path4396"
       style="fill:#b00000;fill-opacity:0;stroke:#646464;stroke-width:0.80000000000000004;stroke-linecap:butt;stroke-linejoin:miter;stroke-miterlimit:4;stroke-opacity:1;stroke-dasharray:none" /><path
       d="m 318.627,430.089 1.337,7.244 -2.448,5.129 3.021,1.05 6.434,6.248 7.498,4.239 8.364,1.884 11.015,-19.417 -9.08,0.193 -7.574,-5.192 -9.324,-1.865 -5.907,0.397 -3.336,0.09 z"
       id="path4424"
       style="fill:#b00000;fill-opacity:0;stroke:#646464;stroke-width:0.80000000000000004;stroke-linecap:butt;stroke-linejoin:miter;stroke-miterlimit:4;stroke-opacity:1;stroke-dasharray:none" /><path
       d="m 329.377,400.896 -8.21,12.274 0.796,16.829 5.907,-0.398 9.324,1.865 7.574,5.193 9.008,-0.191 8.411,-12.758 5.196,-4.079 -4.93,-4.208 -11.262,5.361 -2.103,-2.895 -1.412,-9.691 -5.882,-0.698 0.096,-2.574 -12.513,-4.03 z"
       id="path4452"
       style="fill:#b00000;fill-opacity:0;stroke:#646464;stroke-width:0.80000000000000004;stroke-linecap:butt;stroke-linejoin:miter;stroke-miterlimit:4;stroke-opacity:1;stroke-dasharray:none" /><path
       d="m 367.383,419.631 16.231,-12.199 4.439,3.509 3.788,-3.134 4.845,0.873 26.657,-10.42 13.698,-0.884 13.193,2.09 10.17,-2.992 10.486,-1.16 9.096,4.409 11.902,-1.495 6.133,-1.645 15.674,-4.889 0.075,-0.629 -6.121,-3.759 -3.739,-1.947 -3.005,0.886 -26.25,-8.605 -4.358,-5.455 -5.918,-3.689 -2.313,-3.721 0.161,-3.701 -4.62,-3.179 -9.184,-8.674 -2.834,-5.921 -1.079,-7.753 -21.515,-13.747 -10.227,-7.323 -7.616,-8.874 -4.409,2.103 -18.582,-15.444 -11.441,3.046 -10.094,7.563 -5.944,20.639 -0.249,11.961 -9.255,3.834 -4.73,14.964 -2.578,25.652 -8.493,20.975 12.514,4.029 -0.097,2.575 5.882,0.698 1.412,9.691 2.103,2.895 11.262,-5.361 4.93,4.208 z"
       id="path4454"
       style="fill:#b00000;fill-opacity:0;stroke:#646464;stroke-width:0.80000000000000004;stroke-linecap:butt;stroke-linejoin:miter;stroke-miterlimit:4;stroke-opacity:1;stroke-dasharray:none" /><path
       d="m 306.47,345.766 -2.798,-1.267 -11.136,0.081 -14.96,0.663 -10.99,0.899 3.333,10.675 1.13,4.538 1.021,13.773 6.128,0.425 1.147,5.5 10.407,-0.596 6.712,-2.159 4.518,2.319 -0.169,-26.947 2.12,-1.682 3.537,-6.222 z"
       id="path4482"
       style="fill:#b00000;fill-opacity:0;stroke:#646464;stroke-width:0.80000000000000004;stroke-linecap:butt;stroke-linejoin:miter;stroke-miterlimit:4;stroke-opacity:1;stroke-dasharray:none" /><path
       d="m 205.612,177.247 -21.226,63.102 -2.535,10.884 -2.365,3.222 -3.109,9.403 85.952,-29.328 -6.832,-13.148 5.926,0.244 3.673,-1.061 2.602,-1.285 -8.065,-15.891 -6.367,-7.176 -8.784,-4.028 1.015,-9.08 -39.885,-5.858 z"
       id="path4484"
       style="fill:#b00000;fill-opacity:0;stroke:#646464;stroke-width:0.80000000000000004;stroke-linecap:butt;stroke-linejoin:miter;stroke-miterlimit:4;stroke-opacity:1;stroke-dasharray:none" /><path
       d="m 213.487,162.901 -8.032,-4.261 -0.312,9.869 -2.934,6.198 3.402,2.54 39.886,5.858 -1.016,9.08 8.784,4.028 6.367,7.176 8.065,15.891 3.255,1.583 0.436,-3.559 9.605,-0.597 25.977,-0.387 4.462,-0.601 18.592,9.35 8.106,9.517 5.273,17.747 6.306,9.034 1.823,-5.421 1.209,-7.762 1.474,0.408 -0.333,-3.089 -4.348,-2.914 2.175,-5.251 -0.133,-4.838 3.475,-0.961 0.972,-4.984 -3.259,-3.361 -3.905,-2.757 0,-8.717 -10.87,1.297 -5.353,-5.099 -6.31,-6.968 -10.417,0.007 -2.978,-2.683 -10.598,-0.087 -5.873,-1.834 -14.505,-4.891 1.953,-4.911 -0.317,-11.853 -1.061,-5.141 -1.8,-3.442 -4.224,-1.425 -6.646,0.949 -0.283,-2.917 -2.009,0.749 -0.677,-0.817 -8.578,1.597 -5.808,3.177 -8.607,-4.025 -13.357,-0.961 -12.439,2.778 -4.615,-2.319 z"
       id="path4486"
       style="fill:#b00000;fill-opacity:0;stroke:#646464;stroke-width:0.80000000000000004;stroke-linecap:butt;stroke-linejoin:miter;stroke-miterlimit:4;stroke-opacity:1;stroke-dasharray:none" /><path
       d="m 282.193,93.3504 -1.904,0.4484 -0.729,4.2438 -1.837,1.5566 -1.382,7.0148 -6.075,6.899 -14.374,5.281 0.414,1.276 -3.256,1.411 2.534,3.496 -34.071,7.817 6.527,13.16 -14.075,15.672 -0.931,1.036 0.453,0.24 4.615,2.318 12.439,-2.777 13.357,0.961 8.608,4.025 5.807,-3.178 8.58,-1.596 0.675,0.817 2.01,-0.749 -2.206,-5.874 6.696,0.194 1.125,-33.823 7,-29.8696 z"
       id="path4514"
       style="fill:#b00000;fill-opacity:0;stroke:#646464;stroke-width:0.80000000000000004;stroke-linecap:butt;stroke-linejoin:miter;stroke-miterlimit:4;stroke-opacity:1;stroke-dasharray:none" /><path
       d="m 243.611,368.757 28.076,-1.286 -0.639,-6.116 -1.13,-4.538 -13.691,-45.589 -2.289,25.833 -10.327,31.696 z"
       id="path4542"
       style="fill:#b00000;fill-opacity:0;stroke:#646464;stroke-width:0.80000000000000004;stroke-linecap:butt;stroke-linejoin:miter;stroke-miterlimit:4;stroke-opacity:1;stroke-dasharray:none" /><path
       style="fill:#b00000;fill-opacity:0;stroke:#646464;stroke-width:1;stroke-linecap:butt;stroke-linejoin:miter;stroke-miterlimit:4;stroke-opacity:1;stroke-dasharray:none"
       d="m 304.5,591.40625 -97.1875,89.9375 13.15625,3.375 13.8125,-14.71875 3.4375,4.125 23.625,0.90625 32.3125,8.375 21.46875,-1.09375 5.15625,-19 -2.84375,-32.28125 -12.9375,-39.625 z"
       transform="matrix(0.8,0,0,-0.8,0,841.88952)"
       id="path4544" /><path
       d="m 317.086,472.739 13.93,-4.423 7.607,-4.851 4.21,-7.582 -8.364,-1.884 -7.498,-4.239 -6.434,-6.247 -3.021,-1.05 -5.645,7.363 7.334,2.135 -2.119,20.778 z"
       id="path4572"
       style="fill:#b00000;fill-opacity:0;stroke:#646464;stroke-width:0.80000000000000004;stroke-linecap:butt;stroke-linejoin:miter;stroke-miterlimit:4;stroke-opacity:1;stroke-dasharray:none" /><path
       d="m 311.871,449.825 -4.601,0.514 -5.127,8.104 -7.465,2.808 -4.998,0.235 2.376,16.684 -0.006,-0.038 0.093,0.654 12.481,-2.074 12.462,-3.974 2.119,-20.778 -7.334,-2.135 z"
       id="path4600"
       style="fill:#b00000;fill-opacity:0;stroke:#646464;stroke-width:0.80000000000000004;stroke-linecap:butt;stroke-linejoin:miter;stroke-miterlimit:4;stroke-opacity:1;stroke-dasharray:none" /><path
       d="m 291.907,477.129 -2.227,-15.643 -1.12,-17.479 -20.105,-5.028 -0.635,4.534 3.512,17.647 3.412,7.541 7.479,5.829 9.684,2.599 z"
       id="path4628"
       style="fill:#b00000;fill-opacity:0;stroke:#646464;stroke-width:0.80000000000000004;stroke-linecap:butt;stroke-linejoin:miter;stroke-miterlimit:4;stroke-opacity:1;stroke-dasharray:none" /><path
       d="m 263.137,437.649 1.161,-5.249 -2.363,-1.705 2.428,-6.704 -17.654,-3.296 -11.98,-2.659 -7.884,7.591 -1.659,15.674 -1.694,17.06 -3.774,26.054 4.633,-1.508 3.218,-20.611 5.449,-4.358 6.189,0.13 0.226,-8.043 2.929,-9.529 2.97,-0.547 0.081,-1.583 17.724,-0.717 z"
       id="path4656"
       style="fill:#b00000;fill-opacity:0;stroke:#646464;stroke-width:0.80000000000000004;stroke-linecap:butt;stroke-linejoin:miter;stroke-miterlimit:4;stroke-opacity:1;stroke-dasharray:none" /><path
       d="m 219.718,484.415 8.967,20.496 -10.353,18.272 13.462,5.037 4.028,1.171 2.906,0.496 4.673,7.588 12.119,-7.018 12.015,1.757 1.943,17.365 32.638,-3.979 -1.49,-7.243 -8.719,-61.228 -9.684,-2.599 -7.479,-5.828 -3.412,-7.541 -3.513,-17.647 0.635,-4.535 -5.317,-1.33 -17.724,0.717 -0.081,1.583 -2.97,0.547 -2.929,9.529 -0.226,8.043 -6.189,-0.13 -5.449,4.358 -3.218,20.611 -4.633,1.508 z"
       id="path4684"
       style="fill:#b00000;fill-opacity:0;stroke:#646464;stroke-width:0.80000000000000004;stroke-linecap:butt;stroke-linejoin:miter;stroke-miterlimit:4;stroke-opacity:1;stroke-dasharray:none" /><path
       d="m 300.498,392.621 -2.429,-5.035 2.913,-6.97 -4.518,-2.318 -6.424,1.983 -10.695,0.772 -1.147,-5.5 -6.128,-0.425 -0.754,10.586 -2.178,7.024 -1.344,8.801 -1.659,10.86 2.96,0.846 0.782,-4.752 17.78,3.921 18.009,3.403 -2.028,-4.577 -0.183,-3.789 0.563,-6.121 -3.52,-8.709 z"
       id="path4712"
       style="fill:#b00000;fill-opacity:0;stroke:#646464;stroke-width:0.80000000000000004;stroke-linecap:butt;stroke-linejoin:miter;stroke-miterlimit:4;stroke-opacity:1;stroke-dasharray:none" /><path
       d="m 287.086,412.272 -17.209,-3.779 -0.782,4.752 -2.96,-0.846 -1.772,11.592 -2.428,6.704 2.363,1.705 -1.161,5.249 18.762,4.285 5.872,-24.582 -1.745,-0.505 1.06,-4.575 z"
       id="path4740"
       style="fill:#b00000;fill-opacity:0;stroke:#646464;stroke-width:0.80000000000000004;stroke-linecap:butt;stroke-linejoin:miter;stroke-miterlimit:4;stroke-opacity:1;stroke-dasharray:none" /><path
       d="m 305.666,415.818 -18.676,-3.546 -0.965,4.575 1.746,0.505 -5.873,24.582 6.662,2.073 0.035,0.546 0.055,2.715 4.354,-2.791 2.967,-8.577 1.99,0.281 1.537,-6.905 7.861,-6.326 -1.693,-7.132 z"
       id="path4768"
       style="fill:#b00000;fill-opacity:0;stroke:#646464;stroke-width:0.80000000000000004;stroke-linecap:butt;stroke-linejoin:miter;stroke-miterlimit:4;stroke-opacity:1;stroke-dasharray:none" /><path
       style="fill:#b00000;fill-opacity:0;stroke:#646464;stroke-width:1;stroke-linecap:butt;stroke-linejoin:miter;stroke-miterlimit:4;stroke-opacity:1;stroke-dasharray:none"
       d="m 384.0875,489.43815 5.75125,0.6425 7.05625,9.2025 3.06,6.4125 -1.5725,8.51625 -12.1425,-0.68 -11.8675,2.235 -1.92125,-8.63125 -2.4875,0.35125 -3.70875,-10.72125 -5.4425,-3.48875 1.2875,-17.7725 6.2475,0.29375 9.33125,3.51 6.40875,10.13 z"
       id="path4616"
       transform="matrix(0.8,0,0,-0.8,0,841.88952)"
       sodipodi:nodetypes="ccccccccccccccc" /></g></svg>