<?xml version="1.0" standalone="no"?>
<!DOCTYPE svg PUBLIC "-//W3C//DTD SVG 20010904//EN"
 "http://www.w3.org/TR/2001/REC-SVG-20010904/DTD/svg10.dtd">
<svg version="1.0" xmlns="http://www.w3.org/2000/svg"
 width="1220.000000pt" height="1069.000000pt" viewBox="0 0 1220.000000 1069.000000"
 preserveAspectRatio="xMidYMid meet">

<g transform="translate(0.000000,1069.000000) scale(0.100000,-0.100000)"
fill="#000000" stroke="none">
<path d="M3294 9377 c-3 -8 -4 -39 -2 -68 l3 -54 95 0 95 0 0 65 0 65 -93 3
c-72 2 -94 0 -98 -11z m181 -57 l0 -55 -85 0 -85 0 -3 44 c-5 71 -3 72 90 69
l83 -3 0 -55z"/>
<path d="M3380 9342 c22 -10 27 -47 5 -38 -9 3 -13 2 -10 -4 14 -22 35 -10 35
20 0 25 -4 30 -22 29 -17 0 -19 -2 -8 -7z"/>
<path d="M9746 9068 c-9 -12 -16 -26 -16 -30 0 -4 20 -21 44 -37 l44 -31 16
25 c23 34 20 55 -4 25 -15 -20 -21 -23 -31 -12 -10 9 -10 15 -1 24 19 19 14
33 -6 15 -18 -17 -42 -23 -42 -11 0 3 5 14 11 26 15 28 4 34 -15 6z"/>
<path d="M9686 8975 c-20 -20 -20 -39 -2 -54 14 -12 46 -5 46 10 0 5 7 9 15 9
20 0 19 -19 -2 -42 -20 -22 -1 -24 22 -2 35 35 -8 82 -44 49 -26 -22 -40 -12
-22 16 16 27 8 35 -13 14z"/>
<path d="M9621 8876 c-31 -37 13 -74 49 -41 24 22 38 1 16 -24 -22 -24 -20
-34 4 -21 13 7 20 21 20 40 0 25 -4 30 -24 30 -13 0 -29 -7 -36 -15 -9 -11
-16 -13 -23 -6 -7 7 -6 15 3 26 7 8 11 18 8 20 -3 3 -11 -1 -17 -9z"/>
<path d="M9550 8771 c0 -14 53 -90 63 -91 5 0 7 6 4 13 -6 18 11 47 29 47 28
0 5 18 -32 24 -19 4 -42 10 -50 13 -8 3 -14 0 -14 -6z m63 -37 c-7 -18 -7 -18
-27 5 -16 17 -16 18 8 14 16 -3 23 -10 19 -19z"/>
<path d="M9482 8673 l-20 -27 39 -28 c44 -32 71 -38 46 -10 -25 27 -21 35 13
29 16 -4 32 -2 35 3 3 6 -5 10 -19 10 -14 0 -26 4 -26 9 0 12 -29 41 -40 41
-5 0 -17 -12 -28 -27z m43 -3 c3 -5 2 -16 -2 -24 -11 -20 -38 -3 -30 18 7 18
23 21 32 6z"/>
<path d="M9421 8584 c-24 -31 -28 -52 -6 -34 11 9 20 8 42 -7 44 -31 53 -35
53 -24 0 5 -16 19 -35 31 -27 17 -34 27 -30 41 9 26 0 24 -24 -7z"/>
<path d="M9362 8498 c-17 -17 -15 -58 3 -65 9 -3 24 2 34 11 36 32 57 10 24
-26 -9 -10 -11 -18 -5 -18 6 0 19 11 28 25 13 20 14 28 4 40 -16 19 -29 19
-52 -2 -15 -13 -21 -14 -31 -4 -9 10 -8 15 6 26 10 7 14 16 9 19 -5 3 -14 0
-20 -6z"/>
<path d="M9286 8385 c-16 -24 -15 -25 30 -56 25 -17 48 -28 52 -24 4 3 -1 11
-11 16 -26 15 -20 29 13 29 17 0 30 5 30 10 0 6 -11 10 -24 10 -15 0 -26 7
-29 20 -7 28 -41 25 -61 -5z m54 -2 c0 -5 -5 -15 -10 -23 -7 -11 -12 -12 -21
-3 -6 6 -8 16 -5 22 8 12 36 15 36 4z"/>
<path d="M9225 8293 c-17 -25 -17 -27 6 -44 53 -40 68 -44 84 -23 8 10 14 26
14 34 1 10 -6 7 -18 -9 -21 -28 -47 -21 -31 9 15 29 12 35 -9 16 -28 -25 -45
-11 -25 20 9 13 12 24 6 24 -5 0 -18 -12 -27 -27z"/>
<path d="M9178 8225 c-4 -4 -3 -18 3 -32 13 -36 12 -48 -6 -33 -8 6 -20 10
-26 8 -6 -2 7 -16 30 -31 47 -31 72 -36 48 -9 -24 26 -21 32 13 32 17 0 30 5
30 10 0 6 -15 10 -34 10 -28 0 -36 5 -43 26 -5 14 -11 22 -15 19z"/>
<path d="M9090 8089 c-9 -17 -8 -25 7 -41 28 -32 51 -40 73 -28 21 11 28 60 9
60 -6 0 -9 -6 -6 -13 3 -8 1 -20 -4 -28 -7 -12 -13 -12 -36 1 -36 20 -40 44
-11 58 l23 11 -22 0 c-13 1 -27 -8 -33 -20z"/>
<path d="M9026 7999 c-20 -34 -19 -35 46 -73 26 -16 27 -15 48 14 12 16 17 30
11 30 -6 0 -15 -9 -21 -21 -9 -16 -14 -18 -26 -8 -11 9 -12 15 -3 26 7 7 9 17
5 21 -4 4 -12 -1 -17 -10 -5 -10 -16 -15 -25 -11 -13 5 -13 8 1 29 8 12 11 25
7 28 -5 3 -16 -9 -26 -25z"/>
<path d="M8976 7923 c-3 -3 3 -12 14 -20 16 -11 18 -17 8 -32 -11 -17 -14 -18
-35 -4 -13 9 -23 11 -23 5 0 -16 88 -74 95 -63 3 6 -4 15 -15 21 -16 9 -18 15
-10 31 9 16 14 17 31 8 40 -21 30 -1 -14 30 -24 16 -47 27 -51 24z"/>
<path d="M8893 7798 c-23 -30 -21 -37 18 -63 46 -30 65 -28 75 11 5 21 2 31
-17 45 -28 22 -62 24 -76 7z m58 -16 c21 -18 22 -52 2 -52 -21 1 -56 39 -50
54 8 21 20 20 48 -2z"/>
<path d="M8841 7718 c-1 -9 4 -20 9 -23 19 -12 10 -25 -14 -19 -13 3 -27 1
-30 -5 -5 -7 3 -11 21 -11 15 0 41 -7 57 -15 39 -21 42 -13 9 22 -15 16 -33
38 -40 48 -10 17 -12 18 -12 3z"/>
<path d="M8766 7610 c-10 -17 -16 -33 -14 -34 1 -2 21 -15 43 -30 l40 -27 18
22 c9 12 17 26 17 33 -1 6 -9 1 -19 -11 -23 -28 -49 -16 -32 16 14 25 3 28
-15 4 -10 -14 -15 -15 -25 -6 -10 10 -10 15 0 27 7 9 11 20 9 26 -2 6 -12 -3
-22 -20z"/>
<path d="M8690 7493 c0 -5 19 -20 43 -35 l42 -28 18 21 c9 12 17 26 17 33 -1
6 -9 1 -19 -11 l-18 -22 -36 25 c-38 25 -47 29 -47 17z"/>
<path d="M4156 7327 c-34 -59 -300 -547 -325 -595 l-20 -40 232 -122 c128 -68
234 -125 237 -127 2 -2 -10 -30 -27 -61 -17 -31 -176 -334 -353 -672 -177
-338 -344 -656 -371 -707 l-49 -91 52 -30 c29 -16 199 -107 378 -202 179 -95
352 -187 386 -206 l60 -33 256 497 c622 1206 708 1375 704 1380 -3 2 -159 84
-348 182 l-343 178 -20 -41 c-11 -23 -20 -43 -21 -45 -1 -3 -97 52 -113 65 -2
1 44 104 102 228 59 124 107 227 107 230 0 3 -112 61 -250 130 l-249 125 -25
-43z m274 -102 l229 -115 -14 -32 c-7 -18 -56 -122 -108 -230 l-95 -197 68
-40 c38 -23 73 -41 78 -41 5 0 12 10 15 23 4 12 12 30 20 40 12 18 33 8 345
-153 l332 -173 -69 -131 c-38 -72 -225 -435 -416 -806 -376 -730 -454 -881
-465 -893 -7 -8 -833 427 -838 441 -2 7 569 1105 753 1449 l44 82 -229 121
c-127 67 -232 126 -236 131 -6 11 335 639 347 639 5 0 112 -52 239 -115z"/>
<path d="M5526 6885 c-28 -26 -33 -44 -14 -63 15 -15 55 -16 64 -1 3 6 -1 18
-11 27 -15 16 -16 16 -13 -2 4 -24 -20 -33 -28 -11 -7 18 22 55 43 55 8 0 17
-9 20 -20 5 -19 23 -19 23 0 0 13 -30 40 -44 40 -7 0 -25 -11 -40 -25z"/>
<path d="M5605 6790 c-21 -22 -35 -40 -29 -40 5 0 15 5 21 11 18 18 35 1 22
-23 -7 -13 -7 -24 -1 -30 6 -6 12 -1 16 15 3 15 13 24 22 23 29 -2 40 29 21
58 -10 14 -21 26 -25 26 -4 0 -26 -18 -47 -40z m63 -13 c2 -10 -3 -17 -11 -17
-16 0 -30 24 -19 34 10 10 27 1 30 -17z"/>
<path d="M5750 6739 c0 -5 5 -7 10 -4 6 3 10 8 10 11 0 2 -4 4 -10 4 -5 0 -10
-5 -10 -11z"/>
<path d="M5693 6698 c-29 -11 -50 -24 -47 -29 2 -4 11 -6 18 -3 13 5 38 -17
35 -32 -5 -30 5 -23 31 21 44 74 43 75 -37 43z m31 -23 c-7 -17 -20 -20 -28
-6 -7 10 3 21 20 21 8 0 11 -6 8 -15z"/>
<path d="M5771 6615 c-23 -21 -39 -40 -37 -43 3 -3 12 1 21 8 13 11 19 10 35
-5 18 -16 20 -16 20 -2 0 9 -5 19 -11 23 -8 4 -8 9 0 17 7 7 16 5 31 -8 29
-26 33 -14 6 19 l-23 29 -42 -38z"/>
<path d="M5844 6526 l-39 -35 28 -28 c15 -15 27 -23 27 -16 0 6 -7 16 -15 23
-12 10 -13 16 -4 27 10 11 15 11 30 -3 20 -18 27 -6 8 13 -6 6 -8 16 -4 23 5
8 14 5 31 -11 27 -25 32 -15 8 19 -20 29 -24 28 -70 -12z"/>
<path d="M5920 6440 c-25 -22 -39 -40 -31 -40 8 0 26 10 39 23 23 20 25 21 18
2 -13 -34 -19 -75 -12 -75 15 0 85 63 80 72 -4 5 -17 -1 -31 -14 l-25 -23 7
48 c4 26 6 47 4 47 -2 0 -24 -18 -49 -40z"/>
<path d="M6010 6340 c-27 -24 -39 -39 -29 -40 8 0 20 5 27 12 9 9 15 9 24 0
10 -10 10 -17 0 -33 -21 -33 -10 -31 33 6 22 18 37 36 33 40 -4 5 -14 2 -23
-5 -12 -10 -18 -10 -30 0 -14 12 -14 15 1 31 32 36 8 28 -36 -11z"/>
<path d="M6090 6238 c-36 -17 -41 -22 -25 -26 31 -7 43 -21 38 -42 -9 -33 4
-22 31 26 40 72 34 78 -44 42z m40 -18 c-6 -11 -15 -18 -21 -15 -15 10 -11 23
9 28 9 3 18 5 20 6 1 0 -2 -8 -8 -19z"/>
<path d="M6181 6164 c-17 -14 -31 -33 -31 -43 0 -21 19 -41 39 -41 21 0 82 50
75 62 -4 5 -20 -4 -39 -22 -31 -30 -55 -33 -55 -7 0 6 14 26 32 44 38 39 23
44 -21 7z"/>
<path d="M6273 6079 c-8 -8 -8 -19 0 -39 15 -39 0 -51 -24 -21 -24 29 -34 23
-13 -8 20 -28 60 -25 58 4 -1 11 -5 28 -9 38 -5 12 -3 17 9 17 9 0 19 -7 22
-15 7 -16 24 -21 24 -6 0 14 -29 41 -44 41 -6 0 -17 -5 -23 -11z"/>
<path d="M6335 5975 l-40 -34 24 -25 c27 -29 44 -26 17 3 -14 16 -15 20 -2 30
11 10 16 8 24 -6 6 -10 14 -15 18 -11 4 4 1 14 -5 22 -23 27 -1 39 25 15 13
-12 24 -19 24 -15 0 10 -31 56 -39 56 -3 -1 -24 -16 -46 -35z"/>
<path d="M6412 5891 c-23 -20 -39 -40 -36 -44 4 -4 15 0 25 9 21 19 34 3 19
-25 -6 -12 -6 -22 -1 -26 5 -3 12 3 16 14 3 11 16 21 28 23 28 4 34 38 10 66
l-18 21 -43 -38z m58 -6 c10 -12 9 -16 -5 -21 -17 -7 -38 13 -29 28 8 12 20
10 34 -7z"/>
<path d="M6542 5773 c-6 -11 -6 -25 1 -40 15 -33 -1 -42 -24 -14 -21 26 -33
24 -23 -3 10 -26 43 -40 60 -25 15 12 15 24 -1 62 -10 23 21 23 34 0 5 -10 13
-15 17 -10 9 9 -25 47 -42 47 -7 0 -17 -8 -22 -17z"/>
<path d="M6636 5713 c-3 -3 -1 -12 5 -19 7 -9 1 -20 -25 -40 -19 -15 -32 -32
-29 -37 3 -5 20 6 39 24 28 27 36 30 49 19 23 -19 18 -1 -9 31 -13 15 -26 25
-30 22z"/>
<path d="M6675 5590 c-21 -22 -35 -40 -29 -40 5 0 15 5 21 11 18 18 35 1 22
-22 -16 -30 -5 -48 12 -19 8 14 20 25 28 25 27 0 35 30 15 58 -10 15 -21 27
-24 27 -3 0 -24 -18 -45 -40z m63 -13 c2 -10 -3 -17 -12 -17 -18 0 -29 16 -21
31 9 14 29 6 33 -14z"/>
<path d="M6763 5498 c-29 -11 -50 -25 -47 -29 3 -5 10 -7 15 -3 16 10 40 -17
34 -37 -4 -11 -3 -19 2 -19 11 0 64 98 55 103 -4 3 -31 -4 -59 -15z m31 -23
c-7 -17 -20 -20 -28 -6 -7 10 3 21 20 21 8 0 11 -6 8 -15z"/>
<path d="M6851 5426 c-10 -11 -10 -20 -1 -36 17 -32 -3 -48 -24 -19 -17 25
-30 22 -20 -5 8 -20 52 -32 66 -18 8 8 8 18 0 37 -15 33 -15 35 3 35 7 0 18
-8 24 -17 5 -10 12 -15 15 -12 8 8 -23 49 -38 49 -8 0 -19 -6 -25 -14z"/>
<path d="M6930 5345 c-10 -12 -10 -21 -2 -40 16 -34 -6 -45 -30 -15 -13 16
-18 18 -18 7 0 -22 29 -49 49 -45 12 3 16 14 14 46 -2 44 6 52 27 27 7 -9 15
-13 18 -10 6 6 -27 45 -38 45 -4 0 -13 -7 -20 -15z"/>
<path d="M6987 5238 l-37 -33 25 -30 c16 -20 25 -25 25 -14 0 8 -5 20 -11 26
-20 20 1 36 22 17 17 -15 19 -15 19 -1 0 9 -5 19 -11 23 -8 4 -8 9 0 17 7 7
16 6 29 -6 29 -26 38 -20 12 8 -13 14 -26 25 -30 25 -4 0 -23 -15 -43 -32z"/>
<path d="M7772 3568 c-18 -18 -15 -32 13 -58 27 -25 53 -21 63 11 4 10 -1 9
-16 -4 -24 -22 -41 -5 -20 21 12 15 11 16 -4 4 -25 -20 -43 -5 -22 19 18 20 6
27 -14 7z"/>
<path d="M7710 3483 c0 -4 16 -18 36 -31 34 -22 36 -23 50 -5 7 10 13 23 13
28 0 6 -6 2 -14 -9 -13 -18 -15 -18 -49 4 -20 12 -36 18 -36 13z"/>
<path d="M7702 3444 c20 -23 7 -46 -21 -37 -19 6 12 -22 44 -39 19 -10 19 -10
3 9 -24 26 -5 48 26 31 35 -19 3 14 -36 36 -33 19 -33 19 -16 0z"/>
<path d="M7670 3362 c27 -24 32 -33 23 -43 -9 -9 -18 -8 -38 5 -14 10 -31 16
-37 14 -5 -2 6 -12 25 -22 68 -37 94 16 27 56 l-35 20 35 -30z"/>
<path d="M7600 3300 c0 -11 26 -31 33 -24 3 3 15 1 26 -6 12 -6 21 -7 21 -2 0
5 -18 16 -40 25 -22 8 -40 12 -40 7z"/>
<path d="M7630 3261 c0 -6 -10 -11 -23 -11 -40 0 -39 -13 5 -32 22 -10 43 -16
46 -14 2 3 -8 11 -24 18 l-28 13 29 5 c25 5 27 6 12 19 -11 9 -17 10 -17 2z"/>
<path d="M7551 3188 c-7 -19 -4 -26 23 -40 42 -23 53 -22 60 5 12 45 -66 79
-83 35z m50 2 c10 -6 19 -20 19 -31 0 -19 -2 -19 -30 -4 -30 15 -36 26 -23 38
8 9 11 9 34 -3z"/>
<path d="M7530 3135 c0 -2 12 -11 28 -19 l27 -15 -25 -1 c-51 -1 -56 -17 -12
-39 23 -12 42 -17 42 -12 0 5 -9 13 -20 16 -26 8 -16 25 16 25 34 0 30 14 -11
33 -38 18 -45 20 -45 12z"/>
<path d="M7490 3052 c0 -10 70 -45 77 -38 3 2 -13 14 -36 26 -23 11 -41 17
-41 12z"/>
<path d="M7498 3007 l22 -24 -32 5 -33 5 24 -27 25 -26 -35 6 c-48 10 -32 -3
19 -14 47 -11 51 -8 22 23 l-20 22 30 -5 c37 -5 38 2 3 33 -36 31 -53 32 -25
2z"/>
<path d="M7410 2881 c-14 -27 -14 -29 20 -46 32 -17 66 -21 38 -4 -26 15 -22
29 10 30 21 1 22 2 7 6 -11 3 -24 11 -28 19 -11 20 -35 17 -47 -5z m32 -23
c-15 -15 -26 -4 -18 18 5 13 9 15 18 6 9 -9 9 -15 0 -24z"/>
<path d="M7376 2814 c-3 -9 -6 -20 -6 -25 0 -8 70 -43 75 -37 14 18 24 48 15
48 -5 0 -10 -7 -10 -15 0 -8 -7 -15 -16 -15 -12 0 -15 6 -11 23 6 21 5 21 -8
3 -18 -24 -39 -12 -25 15 6 11 7 19 1 19 -5 0 -12 -7 -15 -16z"/>
<path d="M9024 2767 c-3 -8 -4 -39 -2 -68 l3 -54 95 0 95 0 0 65 0 65 -93 3
c-72 2 -94 0 -98 -11z m181 -57 l0 -55 -85 0 -85 0 -3 44 c-5 71 -3 72 90 69
l83 -3 0 -55z"/>
<path d="M9110 2732 c22 -10 27 -47 5 -38 -9 3 -13 2 -10 -4 14 -22 35 -10 35
20 0 25 -4 30 -22 29 -17 0 -19 -2 -8 -7z"/>
<path d="M7353 2748 c-25 -32 -23 -38 13 -53 47 -20 51 -19 60 7 11 37 -50 75
-73 46z m38 -8 c10 -6 19 -20 19 -31 0 -19 -2 -19 -30 -4 -30 15 -36 26 -23
38 8 9 11 9 34 -3z"/>
<path d="M7325 2642 l30 -17 -37 -3 c-47 -4 -48 -14 -3 -35 47 -22 56 -21 25
3 l-25 20 25 0 c46 1 53 15 15 33 -46 22 -69 21 -30 -1z"/>
<path d="M7260 2553 c0 -9 52 -63 60 -63 4 0 5 11 2 25 -3 19 0 25 12 25 10 0
14 5 11 10 -7 11 -85 14 -85 3z m50 -19 c0 -14 -3 -14 -15 -4 -8 7 -15 14 -15
16 0 2 7 4 15 4 8 0 15 -7 15 -16z"/>
<path d="M4691 326 c-13 -55 -13 -56 -1 -56 6 0 10 6 10 14 0 9 12 16 32 18
38 4 51 34 22 55 -34 24 -51 16 -63 -31z m63 15 c3 -5 0 -13 -7 -19 -15 -13
-42 1 -33 17 9 13 33 15 40 2z"/>
<path d="M4844 329 c-6 -8 -23 -31 -38 -51 l-28 -37 36 6 c29 4 36 2 36 -11 0
-9 5 -16 10 -16 11 0 12 61 1 99 -5 19 -8 21 -17 10z m3 -66 c-3 -3 -11 -2
-17 2 -8 5 -7 11 2 22 12 15 13 14 16 -1 2 -10 1 -20 -1 -23z"/>
<path d="M12129 317 c-78 -53 -79 -113 -3 -231 31 -47 60 -86 65 -86 5 0 9 33
9 73 0 69 -2 75 -25 85 -45 21 -42 92 5 107 15 5 20 15 20 41 0 42 -21 45 -71
11z"/>
<path d="M4935 298 c-21 -69 -26 -90 -23 -93 1 -1 18 -6 37 -10 23 -5 31 -4
27 4 -4 6 -16 11 -28 11 -13 0 -18 5 -15 14 11 27 19 86 13 86 -4 0 -8 -6 -11
-12z"/>
<path d="M5031 243 c-15 -52 -14 -73 3 -73 8 0 21 -3 30 -6 9 -3 16 -1 16 5 0
6 -10 11 -21 11 -19 0 -21 4 -16 33 3 17 8 40 12 50 4 10 3 17 -3 17 -6 0 -16
-17 -21 -37z"/>
<path d="M5142 205 c-18 -25 -32 -47 -32 -50 0 -2 16 -1 35 2 28 4 35 2 35
-11 0 -9 4 -16 9 -16 9 0 2 101 -8 113 -4 4 -21 -13 -39 -38z m34 -33 c-10
-10 -29 15 -21 28 6 9 10 8 17 -4 6 -10 7 -20 4 -24z"/>
<path d="M5263 213 c-20 -7 -15 -41 7 -53 22 -12 27 -40 7 -40 -7 0 -18 5 -25
12 -6 6 -15 8 -19 4 -11 -11 19 -26 47 -24 33 4 41 43 11 53 -32 10 -27 39 4
31 27 -7 35 8 9 18 -18 7 -23 7 -41 -1z"/>
<path d="M5360 142 c0 -34 4 -62 8 -62 4 0 17 15 27 33 l20 32 5 -44 c5 -49
12 -46 44 17 23 46 14 66 -10 22 l-19 -35 -3 38 c-4 44 -14 47 -32 10 l-14
-28 -4 30 c-7 59 -22 50 -22 -13z"/>
<path d="M5507 103 c-12 -43 -13 -72 0 -60 10 10 31 107 23 107 -5 0 -15 -21
-23 -47z"/>
<path d="M5576 94 c-4 -19 -9 -41 -12 -49 -3 -8 7 -17 27 -24 39 -13 39 -13
39 -2 0 5 -12 12 -26 15 -30 8 -26 32 5 29 27 -3 28 13 1 20 -33 9 -14 34 23
30 26 -3 28 -1 12 6 -43 20 -62 13 -69 -25z"/>
<path d="M5689 84 c-12 -14 -10 -19 14 -38 35 -28 34 -40 -3 -32 -17 3 -30 1
-30 -4 0 -14 67 -12 76 2 4 6 -5 21 -22 34 -22 18 -26 26 -17 35 9 9 16 9 29
-2 15 -12 17 -12 12 1 -7 21 -42 24 -59 4z"/>
<path d="M5801 48 c-15 -44 -14 -46 19 -43 36 2 53 15 22 15 -15 0 -22 6 -22
20 0 17 5 19 33 13 39 -7 32 4 -11 16 -28 9 -31 7 -41 -21z"/>
<path d="M5916 34 c-10 -26 -7 -34 13 -34 14 0 18 5 14 20 -7 27 -20 34 -27
14z"/>
<path d="M5980 14 c0 -8 5 -12 10 -9 6 3 10 10 10 16 0 5 -4 9 -10 9 -5 0 -10
-7 -10 -16z"/>
<path d="M6058 3 c6 -2 18 -2 25 0 6 3 1 5 -13 5 -14 0 -19 -2 -12 -5z"/>
</g>
</svg>
